<svg xmlns="http://www.w3.org/2000/svg" viewBox="0 0 103.921 114.5334">
  <defs>
    <style>
      .cls-1 {
        fill: #fff;
      }
    </style>
  </defs>
  <title>D</title>
  <g id="Capa_2" data-name="Capa 2">
    <g id="Footer">
      <path class="cls-1" d="M103.921,57.2274A60.0611,60.0611,0,0,1,99.637,80.142,53.6258,53.6258,0,0,1,87.5707,98.3006a54.7261,54.7261,0,0,1-18.7486,11.9486,66.3258,66.3258,0,0,1-24.3293,4.2842H0V0H44.4928A65.8215,65.8215,0,0,1,68.8221,4.3235,55.5356,55.5356,0,0,1,87.5707,16.2721,53.2126,53.2126,0,0,1,99.637,34.3914,59.8545,59.8545,0,0,1,103.921,57.2274Z"/>
    </g>
  </g>
</svg>
