<svg xmlns="http://www.w3.org/2000/svg" xmlns:xlink="http://www.w3.org/1999/xlink" viewBox="0 0 144.5 148.5402">
  <defs>
    <style>
      .cls-1 {
        fill: #d4ecff;
      }

      .cls-2 {
        fill: #5793ce;
      }

      .cls-3 {
        fill: #396caa;
      }

      .cls-4 {
        fill: #173d7a;
      }

      .cls-5 {
        fill: #274f89;
      }

      .cls-6 {
        fill: #fff;
      }

      .cls-7 {
        fill: #ff2c9c;
      }

      .cls-8 {
        fill: #e83b1f;
      }

      .cls-9 {
        fill: #e2e2e2;
      }

      .cls-10 {
        fill: url(#Áåçûìÿííûé_ãðàäèåíò_242);
      }

      .cls-11 {
        fill: #eaeaea;
      }

      .cls-12 {
        fill: #ffc2b0;
      }

      .cls-13 {
        fill: #ea9c92;
      }

      .cls-14 {
        fill: #d3008d;
      }
    </style>
    <radialGradient id="Áåçûìÿííûé_ãðàäèåíò_242" data-name="Áåçûìÿííûé ãðàäèåíò 242" cx="-12.2899" cy="43.4832" r="24.0608" gradientUnits="userSpaceOnUse">
      <stop offset="0" stop-color="#01c8ef"/>
      <stop offset="0.0894" stop-color="#03bee9"/>
      <stop offset="0.2388" stop-color="#08a5d7"/>
      <stop offset="0.4288" stop-color="#107bbb"/>
      <stop offset="0.4457" stop-color="#1177b8"/>
      <stop offset="1" stop-color="#112564"/>
    </radialGradient>
  </defs>
  <title>Recurso 19</title>
  <g id="Capa_2" data-name="Capa 2">
    <g id="Background">
      <path class="cls-1" d="M144.5,47.6784V89.4906c0,1.42-.9967,1.9949-2.2261,1.2851L85.7848,58.1618a4.9206,4.9206,0,0,1-2.2261-3.8557V12.4939Z"/>
      <path class="cls-2" d="M96.3179,88.1469a.3295.3295,0,0,1-.1652-.6149l4.4666-2.5834a1.6485,1.6485,0,0,0,.8212-1.4235V80.0693a.3295.3295,0,1,1,.6589,0v3.4558a2.31,2.31,0,0,1-1.1507,1.9943l-4.4666,2.5834A.3289.3289,0,0,1,96.3179,88.1469Z"/>
      <g>
        <g>
          <g>
            <rect class="cls-2" x="92.8708" y="86.0715" width="2.7193" height="5.8681" transform="translate(124.5679 -37.0143) rotate(60.1689)"/>
            <path class="cls-2" d="M97.7355,88.1039a2.1249,2.1249,0,0,0-.9565-1.668c-.53-.3081-.9613-.0609-.9631.5522a2.1255,2.1255,0,0,0,.9565,1.6681C97.3025,88.9643,97.7337,88.7171,97.7355,88.1039Z"/>
          </g>
          <g>
            <rect class="cls-2" x="86.3791" y="87.6424" width="4.4065" height="9.2036" transform="translate(124.5394 -30.4869) rotate(60.1691)"/>
            <path class="cls-3" d="M91.8462,88.8054l1.7227-.9879a3.5175,3.5175,0,0,1,1.3528,2.359l-1.7228.9879A3.5186,3.5186,0,0,1,91.8462,88.8054Z"/>
            <path class="cls-2" d="M94.13,90.8592a3.4432,3.4432,0,0,0-1.55-2.703c-.859-.4993-1.5577-.0987-1.5606.8948a3.4434,3.4434,0,0,0,1.55,2.703C93.4281,92.2533,94.1269,91.8527,94.13,90.8592Z"/>
          </g>
        </g>
        <path class="cls-1" d="M96.13,87.4741a.2749.2749,0,0,0,.0015-.5208.9971.9971,0,0,0-.9021-.0027.2749.2749,0,0,0-.0015.5209A.9971.9971,0,0,0,96.13,87.4741Z"/>
      </g>
      <path class="cls-2" d="M27.5617,88.71a.3291.3291,0,0,1-.1638-.0441l-3.9126-2.252a1.0321,1.0321,0,0,1,.0187-1.8L48.8587,70.7318a7.2842,7.2842,0,0,0,3.7863-6.3906V32.8328a1.5269,1.5269,0,0,0-2.2583-1.34l-8.452,4.6094a.3294.3294,0,0,1-.3151-.5785l8.452-4.6093a2.1854,2.1854,0,0,1,3.2322,1.9187V64.3412a7.9407,7.9407,0,0,1-4.129,6.9681L23.8205,85.1914a.3739.3739,0,0,0-.0067.6517l3.9126,2.252a.3294.3294,0,0,1-.1647.6149Z"/>
      <g>
        <g>
          <g>
            <rect class="cls-2" x="39.6064" y="33.5" width="2.7193" height="5.8681" transform="translate(52.1945 -17.2277) rotate(60.1694)"/>
            <path class="cls-2" d="M44.4711,35.5324a2.1249,2.1249,0,0,0-.9565-1.668c-.53-.3082-.9613-.0609-.9631.5522a2.1253,2.1253,0,0,0,.9566,1.6681C44.0381,36.3928,44.4693,36.1455,44.4711,35.5324Z"/>
          </g>
          <g>
            <rect class="cls-2" x="33.1148" y="35.0709" width="4.4065" height="9.2036" transform="translate(52.165 -10.7006) rotate(60.1688)"/>
            <path class="cls-3" d="M38.5818,36.2339l1.7227-.9879a3.5175,3.5175,0,0,1,1.3528,2.359l-1.7228.9879A3.5186,3.5186,0,0,1,38.5818,36.2339Z"/>
            <path class="cls-2" d="M40.8654,38.2876a3.4436,3.4436,0,0,0-1.55-2.7029c-.859-.4994-1.5577-.0987-1.5606.8948a3.4436,3.4436,0,0,0,1.55,2.703C40.1637,39.6818,40.8625,39.2811,40.8654,38.2876Z"/>
          </g>
        </g>
        <path class="cls-1" d="M42.8654,34.9026a.2749.2749,0,0,0,.0015-.5208.9968.9968,0,0,0-.9021-.0027.2749.2749,0,0,0-.0015.5208A.9968.9968,0,0,0,42.8654,34.9026Z"/>
      </g>
      <g>
        <g>
          <g>
            <rect class="cls-2" x="26.8933" y="85.6997" width="2.7193" height="5.8681" transform="translate(119.1965 108.2155) rotate(119.8315)"/>
            <path class="cls-2" d="M24.7479,87.7322a2.1251,2.1251,0,0,1,.9565-1.6681c.53-.3081.9613-.0609.9631.5522a2.1254,2.1254,0,0,1-.9566,1.6681C25.1808,88.5925,24.75,88.3453,24.7479,87.7322Z"/>
          </g>
          <g>
            <rect class="cls-2" x="31.6977" y="87.2706" width="4.4065" height="9.2036" transform="translate(130.4637 108.1653) rotate(119.8312)"/>
            <path class="cls-3" d="M30.6372,88.4336l-1.7228-.9879a3.518,3.518,0,0,0-1.3527,2.359l1.7228.988A3.519,3.519,0,0,0,30.6372,88.4336Z"/>
            <path class="cls-2" d="M28.3536,90.4874a3.4436,3.4436,0,0,1,1.55-2.703c.859-.4993,1.5577-.0987,1.5606.8949a3.4434,3.4434,0,0,1-1.55,2.7029C29.0552,91.8815,28.3565,91.4809,28.3536,90.4874Z"/>
          </g>
        </g>
        <path class="cls-1" d="M26.3536,87.1023a.2749.2749,0,0,1-.0015-.5208.9968.9968,0,0,1,.9021-.0026.2748.2748,0,0,1,.0015.5207A.9968.9968,0,0,1,26.3536,87.1023Z"/>
      </g>
      <g>
        <path class="cls-1" d="M75.0541,142.3248,18.848,109.8742c-1.59-.9179-1.3906-2.5214.4454-3.5815l38.2722-22.089a6.8949,6.8949,0,0,1,6.2032-.2572l56.2061,32.4507c1.59.9179,1.3906,2.5214-.4453,3.5814L81.2574,142.0677A6.8947,6.8947,0,0,1,75.0541,142.3248Z"/>
        <path class="cls-4" d="M121.0471,110.3373l-7.683-1.0145L63.7688,80.689a6.8945,6.8945,0,0,0-6.2032.2571l-35.143,20.2824-4.6458-.6134v2.6359l.0046.0006A1.8091,1.8091,0,0,0,18.848,104.88l56.2061,32.4506a6.8947,6.8947,0,0,0,6.2033-.2571L119.53,114.9843a2.5043,2.5043,0,0,0,1.5175-2.086h0Z"/>
        <path class="cls-3" d="M83.7829,92.2441,80.2593,90.21H41.52L22.4226,101.2285l-4.6458-.6134v2.6359l.0046.0006A1.8091,1.8091,0,0,0,18.848,104.88l56.2061,32.4506a5.8158,5.8158,0,0,0,3.2014.6Z"/>
        <path class="cls-2" d="M19.8385,100.8873l-2.0617-.2722v2.6359l.0046.0006A1.8091,1.8091,0,0,0,18.848,104.88l.9905.5719Z"/>
        <path class="cls-5" d="M75.62,137.5935a7.1994,7.1994,0,0,0,5.2707-.3272v-5.88H75.62Z"/>
        <path class="cls-1" d="M75.0541,134.6977,18.848,102.247c-1.59-.9179-1.3906-2.5214.4454-3.5814l38.2722-22.089a6.8942,6.8942,0,0,1,6.2032-.2572L119.9749,108.77c1.59.918,1.3906,2.5215-.4453,3.5815l-38.2722,22.089A6.8951,6.8951,0,0,1,75.0541,134.6977Z"/>
        <path class="cls-6" d="M119.53,111.3886,81.2574,133.4777a6.8954,6.8954,0,0,1-6.2033.2573L18.848,101.2843a2.0919,2.0919,0,0,1-.9885-1.0813,1.7,1.7,0,0,0,.9885,2.0442l56.2061,32.45a6.8944,6.8944,0,0,0,6.2033-.257L119.53,112.3515c1.234-.7125,1.7249-1.67,1.4338-2.5A2.9887,2.9887,0,0,1,119.53,111.3886Z"/>
        <g>
          <path class="cls-4" d="M42.7533,91.504,40.21,90.0357c-.2042-.1179-.1786-.3238.0571-.46l3.0018-1.7331a.8854.8854,0,0,1,.7966-.033l2.5431,1.4683c.2042.1179.1786.3238-.0572.46L43.55,91.471A.8854.8854,0,0,1,42.7533,91.504Z"/>
          <path class="cls-4" d="M46.6806,93.7714l-2.5432-1.4682c-.2041-.1179-.1785-.3238.0573-.46l3.0017-1.733a.8851.8851,0,0,1,.7966-.033l2.5431,1.4682c.2042.1179.1786.3238-.0571.46l-3.0018,1.733A.8854.8854,0,0,1,46.6806,93.7714Z"/>
          <path class="cls-4" d="M50.6079,96.0389l-2.5431-1.4683c-.2042-.1179-.1786-.3238.0572-.46l3.0017-1.7331a.8854.8854,0,0,1,.7966-.033l2.5431,1.4682c.2042.118.1786.3238-.0572.46l-3.0017,1.7331A.8857.8857,0,0,1,50.6079,96.0389Z"/>
          <path class="cls-4" d="M56.04,94.1663,53.4965,92.698c-.2042-.1178-.1786-.3237.0572-.46l2.52-1.4548a.8856.8856,0,0,1,.7967-.033l2.5431,1.4683c.2042.1179.1785.3238-.0572.46l-2.52,1.4548A.8854.8854,0,0,1,56.04,94.1663Z"/>
          <path class="cls-4" d="M59.9669,96.4338l-2.5431-1.4683c-.2042-.1179-.1786-.3238.0571-.46l2.52-1.4549a.8857.8857,0,0,1,.7966-.033l2.5431,1.4683c.2042.1179.1786.3238-.0572.46l-2.52,1.4548A.8854.8854,0,0,1,59.9669,96.4338Z"/>
          <path class="cls-4" d="M63.8942,98.7012l-2.5431-1.4683c-.2042-.1179-.1786-.3238.0572-.46l2.52-1.4548a.8854.8854,0,0,1,.7966-.033l2.5431,1.4682c.2042.1179.1786.3238-.0572.46l-2.52,1.4548A.8854.8854,0,0,1,63.8942,98.7012Z"/>
          <path class="cls-4" d="M67.8215,100.9686,65.2784,99.5c-.2042-.1179-.1786-.3238.0572-.46l2.52-1.4548a.8854.8854,0,0,1,.7966-.033l2.5431,1.4683c.2042.1179.1786.3238-.0572.46l-2.52,1.4548A.8851.8851,0,0,1,67.8215,100.9686Z"/>
          <path class="cls-4" d="M71.7488,103.236l-2.5431-1.4682c-.2042-.1179-.1786-.3238.0572-.46l2.52-1.4548a.8854.8854,0,0,1,.7966-.0331l2.5431,1.4683c.2042.1179.1786.3238-.0572.46l-2.52,1.4548A.8848.8848,0,0,1,71.7488,103.236Z"/>
          <path class="cls-4" d="M75.6761,105.5035l-2.5431-1.4683c-.2042-.1178-.1785-.3238.0572-.46l2.52-1.4548a.8854.8854,0,0,1,.7966-.033l2.5431,1.4682c.2042.1179.1786.3239-.0571.46l-2.52,1.4548A.8856.8856,0,0,1,75.6761,105.5035Z"/>
          <path class="cls-4" d="M79.6035,107.7709,77.06,106.3027c-.2041-.1179-.1785-.3238.0573-.46l2.52-1.4549a.8854.8854,0,0,1,.7966-.033l2.5432,1.4683c.2041.1179.1785.3238-.0573.46l-2.52,1.4548A.8854.8854,0,0,1,79.6035,107.7709Z"/>
          <path class="cls-4" d="M83.5308,110.0384,80.9877,108.57c-.2042-.1179-.1786-.3238.0572-.46l2.52-1.4548a.8853.8853,0,0,1,.7967-.033l2.5431,1.4682c.2041.1179.1785.3238-.0572.46l-2.52,1.4549A.8857.8857,0,0,1,83.5308,110.0384Z"/>
          <path class="cls-4" d="M87.4581,112.3058l-2.5431-1.4682c-.2042-.118-.1786-.3238.0571-.46l2.52-1.4548a.8854.8854,0,0,1,.7966-.033l2.5431,1.4683c.2042.1178.1786.3237-.0572.46l-2.52,1.4548A.8854.8854,0,0,1,87.4581,112.3058Z"/>
          <path class="cls-4" d="M91.3854,114.5732l-2.5431-1.4682c-.2042-.1179-.1786-.3238.0572-.46l2.52-1.4547a.8851.8851,0,0,1,.7966-.0331l2.5431,1.4683c.2042.1179.1786.3238-.0572.46l-2.52,1.4548A.8851.8851,0,0,1,91.3854,114.5732Z"/>
          <path class="cls-3" d="M61.8262,93.0928l-2.5431-1.4682c-.2042-.1179-.1786-.3238.0572-.46L61.86,89.71a.8854.8854,0,0,1,.7966-.033L65.2,91.1451c.2042.1179.1786.3238-.0572.46l-2.52,1.4548A.8854.8854,0,0,1,61.8262,93.0928Z"/>
          <path class="cls-3" d="M57.84,90.7916l-2.5431-1.4683c-.2042-.1179-.1786-.3238.0572-.46l2.52-1.4548a.8848.8848,0,0,1,.7966-.033l2.5431,1.4682c.2042.1179.1786.3238-.0572.46l-2.52,1.4547A.8854.8854,0,0,1,57.84,90.7916Z"/>
          <path class="cls-4" d="M53.8479,88.4865l-5.4772-3.1622c-.2042-.1179-.1786-.3238.0571-.46l2.52-1.4549a.8856.8856,0,0,1,.7967-.033l5.4772,3.1622c.2041.118.1785.3239-.0573.46l-2.52,1.4548A.8854.8854,0,0,1,53.8479,88.4865Z"/>
          <path class="cls-4" d="M56.6386,85.6833,52.1937,83.117c-.2043-.1178-.1786-.3237.0571-.46l2.52-1.4548a.8856.8856,0,0,1,.7967-.033l4.4449,2.5663c.2041.1178.1785.3238-.0573.46l-2.52,1.4548A.8852.8852,0,0,1,56.6386,85.6833Z"/>
          <path class="cls-3" d="M65.7535,95.36,63.21,93.892c-.2042-.1179-.1786-.3238.0572-.46l2.52-1.4548a.8851.8851,0,0,1,.7966-.033l2.5431,1.4682c.2042.1179.1786.3238-.0572.46l-2.52,1.4547A.8851.8851,0,0,1,65.7535,95.36Z"/>
          <path class="cls-4" d="M69.6808,97.6277l-2.543-1.4683c-.2043-.1179-.1786-.3237.0571-.46l2.52-1.4548a.8856.8856,0,0,1,.7967-.033l2.543,1.4682c.2042.118.1786.3238-.0571.46l-2.52,1.4548A.8856.8856,0,0,1,69.6808,97.6277Z"/>
          <path class="cls-4" d="M73.6081,99.8951l-2.543-1.4682c-.2042-.1179-.1786-.3238.0571-.46l2.52-1.4548a.8854.8854,0,0,1,.7966-.033l2.5431,1.4683c.2042.1179.1786.3238-.0572.46l-2.52,1.4548A.8853.8853,0,0,1,73.6081,99.8951Z"/>
          <path class="cls-4" d="M77.5355,102.1626l-2.5432-1.4683c-.2041-.1179-.1785-.3238.0573-.46l2.52-1.4548a.8854.8854,0,0,1,.7966-.033l2.5431,1.4682c.2042.1179.1786.3238-.0572.46l-2.52,1.4549A.8854.8854,0,0,1,77.5355,102.1626Z"/>
          <path class="cls-4" d="M81.4628,104.43,78.92,102.9618c-.2042-.1179-.1786-.3239.0572-.46l2.52-1.4548a.8856.8856,0,0,1,.7967-.033l2.5431,1.4683c.2042.1178.1786.3238-.0572.46l-2.52,1.4548A.8854.8854,0,0,1,81.4628,104.43Z"/>
          <path class="cls-4" d="M85.39,106.6975l-2.5431-1.4683c-.2042-.1179-.1786-.3238.0572-.46l2.52-1.4548a.8848.8848,0,0,1,.7966-.033l2.5431,1.4682c.2042.1179.1786.3238-.0572.46l-2.52,1.4548A.8857.8857,0,0,1,85.39,106.6975Z"/>
          <path class="cls-4" d="M89.3174,108.9649l-2.5431-1.4683c-.2042-.1179-.1786-.3238.0572-.46l2.52-1.4548a.8851.8851,0,0,1,.7966-.033l2.5431,1.4682c.2042.1179.1786.3238-.0572.46l-2.52,1.4548A.8854.8854,0,0,1,89.3174,108.9649Z"/>
          <path class="cls-4" d="M93.2447,111.2323l-2.5431-1.4682c-.2042-.1179-.1786-.3238.0572-.46l2.52-1.4548a.8854.8854,0,0,1,.7966-.033l2.5431,1.4683c.2042.1179.1786.3237-.0572.46l-2.52,1.4548A.8854.8854,0,0,1,93.2447,111.2323Z"/>
          <path class="cls-4" d="M97.172,113.5l-2.5431-1.4682c-.2042-.1179-.1786-.3238.0572-.46l2.52-1.4548a.8859.8859,0,0,1,.7967-.0331l2.543,1.4683c.2042.1179.1786.3238-.0571.46l-2.52,1.4548A.8853.8853,0,0,1,97.172,113.5Z"/>
          <path class="cls-4" d="M104.1539,117.5307l-5.5488-3.2036c-.2042-.1178-.1786-.3238.0572-.46l2.52-1.4548a.8854.8854,0,0,1,.7966-.033l5.5488,3.2036c.2042.1179.1786.3238-.0571.46l-2.52,1.4548A.8853.8853,0,0,1,104.1539,117.5307Z"/>
          <path class="cls-4" d="M111.8,113.1164l-4.6834-2.704c-.2042-.1179-.1786-.3239.0572-.46l2.52-1.4548a.8854.8854,0,0,1,.7966-.033l4.6834,2.704c.2042.1179.1786.3238-.0572.46l-2.52,1.4548A.8857.8857,0,0,1,111.8,113.1164Z"/>
          <path class="cls-4" d="M72.6311,94.9166,70.088,93.4484c-.2042-.1179-.1786-.3239.0572-.46l2.52-1.4547a.8851.8851,0,0,1,.7966-.0331l2.5431,1.4683c.2042.1178.1786.3238-.0572.46l-2.52,1.4548A.8854.8854,0,0,1,72.6311,94.9166Z"/>
          <path class="cls-4" d="M68.6061,92.5928,66.063,91.1245c-.2042-.1179-.1786-.3238.0572-.46L68.64,89.21a.8854.8854,0,0,1,.7966-.033L71.98,90.645c.2042.1179.1786.3238-.0572.46l-2.52,1.4548A.8854.8854,0,0,1,68.6061,92.5928Z"/>
          <path class="cls-3" d="M64.5811,90.2689,62.038,88.8007c-.2042-.1179-.1786-.3238.0572-.46l2.52-1.4547a.8851.8851,0,0,1,.7966-.0331l2.5431,1.4683c.2042.1179.1786.3238-.0572.46l-2.52,1.4548A.8851.8851,0,0,1,64.5811,90.2689Z"/>
          <path class="cls-4" d="M60.5561,87.9451,58.013,86.4769c-.2042-.118-.1786-.3238.0572-.46l2.52-1.4548a.8854.8854,0,0,1,.7966-.033L63.93,85.9974c.2042.1178.1786.3237-.0572.46l-2.52,1.4548A.8854.8854,0,0,1,60.5561,87.9451Z"/>
          <path class="cls-4" d="M76.5584,97.1841l-2.5431-1.4683c-.2042-.1179-.1786-.3238.0572-.46l2.52-1.4548a.8848.8848,0,0,1,.7966-.033l2.5431,1.4682c.2042.1179.1786.3238-.0572.46l-2.52,1.4547A.8854.8854,0,0,1,76.5584,97.1841Z"/>
          <path class="cls-4" d="M80.4857,99.4515l-2.5431-1.4683c-.2042-.1178-.1785-.3238.0572-.46l2.52-1.4548a.8856.8856,0,0,1,.7967-.033l2.543,1.4682c.2042.1179.1786.3238-.0571.46l-2.52,1.4548A.8856.8856,0,0,1,80.4857,99.4515Z"/>
          <path class="cls-4" d="M84.413,101.7189,81.87,100.2507c-.2041-.1179-.1785-.3238.0572-.46l2.52-1.4549a.8857.8857,0,0,1,.7966-.033l2.5432,1.4683c.2041.1179.1785.3238-.0573.46l-2.52,1.4548A.8856.8856,0,0,1,84.413,101.7189Z"/>
          <path class="cls-4" d="M88.34,103.9864l-2.5432-1.4683c-.2041-.1179-.1785-.3238.0573-.46l2.52-1.4548a.886.886,0,0,1,.7967-.0331l2.5431,1.4683c.2041.1179.1785.3238-.0572.46l-2.52,1.4549A.8857.8857,0,0,1,88.34,103.9864Z"/>
          <path class="cls-4" d="M92.2676,106.2538l-2.543-1.4682c-.2042-.1179-.1786-.3239.0572-.46l2.52-1.4548a.8856.8856,0,0,1,.7967-.033l2.5431,1.4683c.2042.1178.1785.3238-.0572.46l-2.52,1.4548A.8856.8856,0,0,1,92.2676,106.2538Z"/>
          <path class="cls-4" d="M96.195,108.5212l-2.5431-1.4682c-.2042-.1179-.1786-.3238.0572-.46l2.52-1.4547a.8851.8851,0,0,1,.7966-.0331l2.5431,1.4683c.2042.1179.1786.3238-.0572.46l-2.52,1.4548A.8851.8851,0,0,1,96.195,108.5212Z"/>
          <path class="cls-4" d="M100.1223,110.7887,97.5792,109.32c-.2042-.1179-.1786-.3238.0572-.46l2.52-1.4548a.8851.8851,0,0,1,.7966-.033l2.5431,1.4682c.2042.1179.1786.3238-.0572.46l-2.52,1.4547A.8851.8851,0,0,1,100.1223,110.7887Z"/>
          <path class="cls-4" d="M104.05,113.0561l-2.5431-1.4683c-.2042-.1178-.1786-.3237.0572-.46l2.52-1.4548a.8854.8854,0,0,1,.7966-.033l2.5431,1.4682c.2042.118.1786.3239-.0572.46l-2.52,1.4548A.8854.8854,0,0,1,104.05,113.0561Z"/>
          <path class="cls-4" d="M107.9769,115.3236l-2.5431-1.4683c-.2042-.1179-.1786-.3238.0572-.46l2.52-1.4549a.8857.8857,0,0,1,.7966-.033l2.5431,1.4683c.2042.1179.1786.3238-.0571.46l-2.52,1.4548A.8856.8856,0,0,1,107.9769,115.3236Z"/>
          <path class="cls-4" d="M70.5631,89.3083,68.02,87.84c-.2042-.1179-.1786-.3238.0572-.46l2.52-1.4548a.8854.8854,0,0,1,.7966-.0331l2.5432,1.4683c.2041.1179.1785.3238-.0573.46l-2.52,1.4549A.8857.8857,0,0,1,70.5631,89.3083Z"/>
          <path class="cls-4" d="M66.6554,87.0521l-2.5432-1.4682c-.2041-.118-.1785-.3238.0573-.46l2.52-1.4548a.8852.8852,0,0,1,.7965-.033l2.5432,1.4683c.2042.1178.1786.3237-.0572.46l-2.52,1.4548A.8854.8854,0,0,1,66.6554,87.0521Z"/>
          <path class="cls-4" d="M62.7476,84.796l-2.5431-1.4683c-.2042-.1179-.1786-.3238.0572-.46l2.52-1.4548a.8854.8854,0,0,1,.7966-.0331l2.5431,1.4683c.2042.1179.1786.3238-.0572.46l-2.52,1.4549A.8857.8857,0,0,1,62.7476,84.796Z"/>
          <path class="cls-4" d="M58.84,82.54l-2.5431-1.4682c-.2042-.118-.1786-.3239.0572-.46l2.52-1.4548a.8854.8854,0,0,1,.7966-.033l2.5431,1.4683c.2042.1178.1786.3237-.0572.46l-2.52,1.4548A.8854.8854,0,0,1,58.84,82.54Z"/>
          <path class="cls-4" d="M62.8582,80.22l-2.5431-1.4683c-.2042-.1178-.1786-.3238.0572-.46l.8329-.4809a.886.886,0,0,1,.7967-.0331l2.5431,1.4683c.2042.1179.1785.3238-.0572.46l-.833.4809A.8851.8851,0,0,1,62.8582,80.22Z"/>
          <path class="cls-4" d="M67.9578,83.1641l-2.5431-1.4683c-.2041-.1179-.1786-.3238.0572-.46l.833-.481a.8854.8854,0,0,1,.7966-.033L69.6447,82.19c.2041.1179.1785.3238-.0573.46l-.833.481A.8857.8857,0,0,1,67.9578,83.1641Z"/>
          <path class="cls-4" d="M71.8493,85.4108l-2.5431-1.4682c-.2042-.1179-.1786-.3238.0572-.46l.833-.4809a.8854.8854,0,0,1,.7966-.033l2.5431,1.4682c.2042.118.1786.3238-.0572.46l-.833.4809A.8854.8854,0,0,1,71.8493,85.4108Z"/>
          <path class="cls-4" d="M75.7408,87.6576l-2.5431-1.4683c-.2042-.1179-.1786-.3238.0572-.46l.833-.4809a.8854.8854,0,0,1,.7966-.0331l2.5431,1.4683c.2042.1179.1786.3238-.0572.46l-.833.4809A.8851.8851,0,0,1,75.7408,87.6576Z"/>
          <path class="cls-4" d="M79.6323,89.9043l-2.5431-1.4682c-.2042-.1179-.1786-.3238.0572-.46l.833-.4809a.8854.8854,0,0,1,.7966-.033l2.5431,1.4683c.2042.1178.1786.3238-.0572.46l-.833.4809A.8854.8854,0,0,1,79.6323,89.9043Z"/>
          <path class="cls-4" d="M101.3579,102.4476l-2.5431-1.4682c-.2042-.118-.1786-.3238.0572-.46l.833-.4809a.8854.8854,0,0,1,.7966-.033l2.5431,1.4682c.2042.1179.1786.3238-.0572.46l-.833.4809A.8854.8854,0,0,1,101.3579,102.4476Z"/>
          <path class="cls-4" d="M105.2494,104.6944l-2.5431-1.4683c-.2042-.1179-.1786-.3238.0572-.46l.833-.481a.8857.8857,0,0,1,.7966-.033l2.5431,1.4683c.2042.1179.1786.3238-.0572.46l-.833.481A.8854.8854,0,0,1,105.2494,104.6944Z"/>
          <path class="cls-4" d="M109.1409,106.9411l-2.5431-1.4682c-.2042-.1179-.1786-.3239.0572-.46l.833-.4809a.8854.8854,0,0,1,.7966-.033l2.5431,1.4683c.2042.1178.1786.3237-.0572.46l-.833.4809A.8854.8854,0,0,1,109.1409,106.9411Z"/>
          <path class="cls-4" d="M113.0324,109.1879l-2.5431-1.4683c-.2042-.1179-.1786-.3238.0572-.46l.833-.4809a.8854.8854,0,0,1,.7966-.0331l2.5431,1.4683c.2042.1179.1786.3238-.0572.46l-.833.4809A.8851.8851,0,0,1,113.0324,109.1879Z"/>
          <path class="cls-4" d="M74.49,91.5757l-2.5431-1.4682c-.2042-.118-.1786-.3239.0572-.46l2.52-1.4548a.8856.8856,0,0,1,.7967-.033l2.543,1.4683c.2042.1178.1786.3237-.0571.46l-2.52,1.4548A.8854.8854,0,0,1,74.49,91.5757Z"/>
          <path class="cls-4" d="M78.4177,93.8431l-2.543-1.4682c-.2042-.1179-.1786-.3238.0571-.46l2.52-1.4547a.8853.8853,0,0,1,.7967-.0331l2.543,1.4683c.2043.1178.1786.3238-.0571.46l-2.52,1.4548A.8856.8856,0,0,1,78.4177,93.8431Z"/>
          <path class="cls-4" d="M82.3451,96.1106,79.802,94.6423c-.2042-.1179-.1786-.3238.0572-.46l2.52-1.4548a.8854.8854,0,0,1,.7966-.033l2.5431,1.4682c.2042.1179.1786.3238-.0572.46l-2.52,1.4547A.8851.8851,0,0,1,82.3451,96.1106Z"/>
          <path class="cls-4" d="M86.2724,98.378,83.7293,96.91c-.2042-.1178-.1786-.3238.0572-.46l2.52-1.4548a.8854.8854,0,0,1,.7966-.033L89.646,96.43c.2042.1179.1786.3239-.0572.46l-2.52,1.4548A.8854.8854,0,0,1,86.2724,98.378Z"/>
          <path class="cls-4" d="M90.2,100.6455l-2.5431-1.4683c-.2042-.1179-.1786-.3238.0572-.46l2.52-1.4549a.8857.8857,0,0,1,.7966-.033l2.5431,1.4683c.2042.1179.1786.3238-.0572.46l-2.52,1.4548A.8857.8857,0,0,1,90.2,100.6455Z"/>
          <path class="cls-4" d="M94.127,102.9129l-2.5431-1.4683c-.2042-.1179-.1786-.3238.0572-.46l2.52-1.4548a.8857.8857,0,0,1,.7966-.0331l2.5431,1.4683c.2042.1179.1786.3238-.0572.46l-2.52,1.4549A.8857.8857,0,0,1,94.127,102.9129Z"/>
          <path class="cls-4" d="M98.0543,105.18l-2.5431-1.4682c-.2042-.1179-.1786-.3239.0572-.46l2.52-1.4548a.8854.8854,0,0,1,.7966-.033l2.5431,1.4683c.2042.1178.1786.3238-.0572.46l-2.52,1.4548A.8854.8854,0,0,1,98.0543,105.18Z"/>
          <path class="cls-4" d="M101.9816,107.4477,99.4385,105.98c-.2042-.1179-.1786-.3238.0572-.46l2.52-1.4547a.8851.8851,0,0,1,.7966-.0331l2.5431,1.4683c.2042.1179.1786.3238-.0571.46l-2.52,1.4548A.8848.8848,0,0,1,101.9816,107.4477Z"/>
          <path class="cls-4" d="M105.9089,109.7152l-2.543-1.4683c-.2042-.1178-.1786-.3238.0571-.46l2.52-1.4548a.8856.8856,0,0,1,.7967-.033l2.543,1.4682c.2043.1179.1786.3238-.0571.46l-2.52,1.4547A.8853.8853,0,0,1,105.9089,109.7152Z"/>
          <path class="cls-4" d="M52.0373,91.8557l-7.49-4.3242c-.2042-.1179-.1786-.3238.0571-.46l2.52-1.4548a.8854.8854,0,0,1,.7966-.033l7.49,4.3242c.2043.1179.1786.3238-.0571.46l-2.52,1.4548A.8856.8856,0,0,1,52.0373,91.8557Z"/>
          <path class="cls-4" d="M100.2853,119.7116l-7.49-4.3242c-.2041-.1178-.1785-.3237.0573-.46l2.52-1.4548a.8854.8854,0,0,1,.7966-.033l7.49,4.3242c.2042.1179.1786.3238-.0572.46l-2.52,1.4548A.8856.8856,0,0,1,100.2853,119.7116Z"/>
          <path class="cls-4" d="M84.58,115.6524l-2.5431-1.4683c-.2042-.1179-.1786-.3238.0572-.46l3.0017-1.7331a.8854.8854,0,0,1,.7966-.033l2.5431,1.4682c.2042.1179.1786.3239-.0572.46l-3.0017,1.733A.8854.8854,0,0,1,84.58,115.6524Z"/>
          <path class="cls-4" d="M56.0592,99.1862l-4.0671-2.3481c-.2042-.118-.1786-.3239.0572-.46L55.051,94.645a.8854.8854,0,0,1,.7966-.033L59.9148,96.96c.2042.1179.1786.3238-.0572.46l-3.0017,1.7331A.8856.8856,0,0,1,56.0592,99.1862Z"/>
          <path class="cls-4" d="M80.7954,113.4676,76.7283,111.12c-.2042-.1179-.1786-.3238.0572-.46l3.0017-1.7331a.8856.8856,0,0,1,.7967-.033l4.0671,2.3482c.2042.1178.1786.3238-.0572.46l-3.0017,1.733A.8853.8853,0,0,1,80.7954,113.4676Z"/>
          <path class="cls-4" d="M61.7255,102.4576,57.6584,100.11c-.2042-.1179-.1786-.3238.0572-.46l3.0017-1.733a.8854.8854,0,0,1,.7966-.0331l4.0671,2.3482c.2043.1179.1786.3238-.0571.46l-3.0018,1.7331A.8854.8854,0,0,1,61.7255,102.4576Z"/>
          <path class="cls-4" d="M61.5415,97.8994l17.6827,10.2091a.2421.2421,0,0,1,0,.4587l-3.061,1.7673a.8784.8784,0,0,1-.7946,0L57.686,100.1254Z"/>
          <path class="cls-4" d="M95.5557,119.7635l2.8327,1.6355c.1674.0966.1464.2654-.0469.377l-1.2279.7089a.7256.7256,0,0,1-.6529.0271l-2.8328-1.6355c-.1674-.0966-.1464-.2654.0469-.377l1.2279-.7089A.7255.7255,0,0,1,95.5557,119.7635Z"/>
          <path class="cls-4" d="M91.5958,117.4773l2.8328,1.6354c.1673.0967.1463.2654-.0469.377l-1.228.709a.7253.7253,0,0,1-.6529.027L89.668,118.59c-.1674-.0966-.1464-.2654.0469-.377l1.2279-.7089A.7255.7255,0,0,1,91.5958,117.4773Z"/>
          <path class="cls-4" d="M87.6685,115.21l2.8327,1.6355c.1674.0966.1464.2654-.0469.377l-1.2279.7089a.7256.7256,0,0,1-.6529.0271l-2.8328-1.6355c-.1674-.0966-.1464-.2654.0469-.377l1.2279-.7089A.7255.7255,0,0,1,87.6685,115.21Z"/>
          <path class="cls-4" d="M93.7645,116.2251l2.8328,1.6355c.1674.0966.1464.2654-.0469.377l-1.2279.7089a.7258.7258,0,0,1-.653.0271l-2.8328-1.6355c-.1673-.0966-.1463-.2654.047-.377l1.2279-.709A.7259.7259,0,0,1,93.7645,116.2251Z"/>
        </g>
      </g>
      <path class="cls-7" d="M139.7891,50.5419V92.354c0,1.42-.9967,1.9951-2.2261,1.2852L81.0739,61.0253A4.9206,4.9206,0,0,1,78.8478,57.17V15.3574Z"/>
      <g>
        <g>
          <path class="cls-3" d="M135.0372,55.1635V96.9757c0,1.42-.9967,1.9951-2.2262,1.2852L76.322,65.6469a4.9206,4.9206,0,0,1-2.2261-3.8557V19.979Z"/>
          <path class="cls-3" d="M74.0959,11.6746V19.979l60.9413,35.1845V46.8591a4.92,4.92,0,0,0-2.2262-3.8557L76.322,10.39C75.0926,9.68,74.0959,10.255,74.0959,11.6746Zm55.112,32.0039c0-.5863.4116-.8239.9193-.5308a2.0324,2.0324,0,0,1,.9194,1.5924c0,.5861-.4117.8238-.9194.5307A2.0321,2.0321,0,0,1,129.2079,43.6785Zm-2.5467-1.47c0-.5863.4116-.824.9194-.5308A2.0319,2.0319,0,0,1,128.5,43.27c0,.5862-.4116.8239-.9193.5307A2.0316,2.0316,0,0,1,126.6612,42.2082Zm-5.5491-3.2038c0-.5863.4116-.8239.9194-.5308a2.0321,2.0321,0,0,1,.9193,1.5923c0,.5863-.4116.8239-.9193.5308A2.0321,2.0321,0,0,1,121.1121,39.0044Zm-2.5466-1.47c0-.5863.4115-.8239.9192-.5308a2.0318,2.0318,0,0,1,.9194,1.5923c0,.5863-.4116.8239-.9194.5308A2.0322,2.0322,0,0,1,118.5655,37.5341ZM113.0163,34.33c0-.5863.4116-.8239.9194-.5308a2.0323,2.0323,0,0,1,.9193,1.5924c0,.5862-.4116.8238-.9193.5307A2.0319,2.0319,0,0,1,113.0163,34.33ZM110.47,32.86c0-.5863.4115-.8239.9193-.5308a2.0319,2.0319,0,0,1,.9193,1.5923c0,.5862-.4116.8238-.9193.5307A2.0315,2.0315,0,0,1,110.47,32.86Zm-5.5491-3.2038c0-.5863.4115-.824.9193-.5308a2.0321,2.0321,0,0,1,.9193,1.5923c0,.5863-.4116.8239-.9193.5308A2.0317,2.0317,0,0,1,104.9206,29.6562Zm-2.5467-1.47c0-.5862.4116-.8239.9193-.5307a2.0319,2.0319,0,0,1,.9193,1.5923c0,.5862-.4116.8239-.9193.5308A2.0323,2.0323,0,0,1,102.3739,28.1858Zm-5.5491-3.2037c0-.5863.4116-.8239.9193-.5308a2.032,2.032,0,0,1,.9193,1.5923c0,.5863-.4115.8239-.9193.5308A2.0323,2.0323,0,0,1,96.8248,24.9821Zm-2.5467-1.47c0-.5863.4116-.8239.9193-.5308a2.0319,2.0319,0,0,1,.9193,1.5923c0,.5862-.4116.8239-.9193.5307A2.0319,2.0319,0,0,1,94.2781,23.5118ZM88.729,20.308c0-.5863.4116-.8239.9193-.5308a2.0322,2.0322,0,0,1,.9194,1.5923c0,.5862-.4117.8239-.9194.5308A2.0321,2.0321,0,0,1,88.729,20.308Zm-2.5467-1.47c0-.5863.4116-.8239.9193-.5307a2.0318,2.0318,0,0,1,.9194,1.5923c0,.5862-.4116.8238-.9194.5308A2.0323,2.0323,0,0,1,86.1823,18.8376Zm-5.5491-3.2038c0-.5862.4116-.8238.9193-.5307a2.0322,2.0322,0,0,1,.9194,1.5923c0,.5863-.4117.8239-.9194.5308A2.0323,2.0323,0,0,1,80.6332,15.6338Zm-2.5466-1.47c0-.5863.4115-.824.9192-.5308a2.0318,2.0318,0,0,1,.9194,1.5923c0,.5862-.4116.8239-.9194.5307A2.0318,2.0318,0,0,1,78.0866,14.1636Z"/>
          <path class="cls-8" d="M83.3584,22.5l42.4163,24.4891c.3366.1943.61-.012.61-.4608h0a1.46,1.46,0,0,0-.61-1.1644L83.3584,20.8743c-.3366-.1943-.6095.012-.6095.4607h0A1.46,1.46,0,0,0,83.3584,22.5Z"/>
          <g>
            <polygon class="cls-2" points="82.494 36.86 86.834 39.365 86.834 35.692 82.494 33.186 82.494 36.86"/>
            <polygon class="cls-2" points="89.129 40.69 93.468 43.195 93.468 39.522 89.129 37.016 89.129 40.69"/>
            <polygon class="cls-2" points="82.494 42.858 86.834 45.363 86.834 41.69 82.494 39.184 82.494 42.858"/>
            <polygon class="cls-2" points="89.129 46.688 93.468 49.194 93.468 45.52 89.129 43.015 89.129 46.688"/>
            <polygon class="cls-9" points="95.763 50.518 100.102 53.024 100.102 49.35 95.763 46.845 95.763 50.518"/>
            <polygon class="cls-9" points="102.397 54.349 106.736 56.854 106.736 53.18 102.397 50.675 102.397 54.349"/>
            <polygon class="cls-9" points="109.031 58.179 113.37 60.684 113.37 57.011 109.031 54.505 109.031 58.179"/>
            <polygon class="cls-9" points="115.665 62.009 120.005 64.514 120.005 60.841 115.665 58.335 115.665 62.009"/>
            <polygon class="cls-9" points="122.299 65.839 126.639 68.345 126.639 64.671 122.299 62.166 122.299 65.839"/>
            <polygon class="cls-2" points="82.494 48.856 86.834 51.361 86.834 47.688 82.494 45.182 82.494 48.856"/>
            <polygon class="cls-2" points="89.129 52.686 93.468 55.192 93.468 51.518 89.129 49.013 89.129 52.686"/>
            <polygon class="cls-9" points="95.763 56.517 100.102 59.022 100.102 55.348 95.763 52.843 95.763 56.517"/>
            <polygon class="cls-9" points="102.397 60.347 106.736 62.852 106.736 59.178 102.397 56.673 102.397 60.347"/>
            <polygon class="cls-9" points="109.031 64.177 113.37 66.682 113.37 63.009 109.031 60.503 109.031 64.177"/>
            <polygon class="cls-9" points="115.665 68.007 120.005 70.513 120.005 66.839 115.665 64.334 115.665 68.007"/>
            <polygon class="cls-9" points="122.299 71.837 126.639 74.343 126.639 70.669 122.299 68.164 122.299 71.837"/>
            <polygon class="cls-2" points="82.494 54.854 86.834 57.36 86.834 53.686 82.494 51.181 82.494 54.854"/>
            <polygon class="cls-2" points="89.129 58.684 93.468 61.19 93.468 57.516 89.129 55.011 89.129 58.684"/>
            <polygon class="cls-9" points="95.763 62.515 100.102 65.02 100.102 61.346 95.763 58.841 95.763 62.515"/>
            <polygon class="cls-9" points="102.397 66.345 106.736 68.85 106.736 65.177 102.397 62.671 102.397 66.345"/>
            <polygon class="cls-9" points="109.031 70.175 113.37 72.68 113.37 69.007 109.031 66.501 109.031 70.175"/>
            <polygon class="cls-9" points="115.665 74.005 120.005 76.511 120.005 72.837 115.665 70.332 115.665 74.005"/>
            <polygon class="cls-9" points="122.299 77.836 126.639 80.341 126.639 76.667 122.299 74.162 122.299 77.836"/>
            <polygon class="cls-2" points="82.494 60.852 86.834 63.358 86.834 59.684 82.494 57.179 82.494 60.852"/>
            <polygon class="cls-2" points="89.129 64.683 93.468 67.188 93.468 63.514 89.129 61.009 89.129 64.683"/>
            <polygon class="cls-9" points="95.763 68.513 100.102 71.018 100.102 67.345 95.763 64.839 95.763 68.513"/>
            <polygon class="cls-9" points="102.397 72.343 106.736 74.848 106.736 71.175 102.397 68.669 102.397 72.343"/>
            <polygon class="cls-9" points="109.031 76.173 113.37 78.679 113.37 75.005 109.031 72.5 109.031 76.173"/>
            <polygon class="cls-9" points="115.665 80.003 120.005 82.509 120.005 78.835 115.665 76.33 115.665 80.003"/>
            <polygon class="cls-9" points="122.299 83.834 126.639 86.339 126.639 82.665 122.299 80.16 122.299 83.834"/>
          </g>
        </g>
        <polygon class="cls-9" points="133.755 98.794 134.388 98.415 133.732 98.28 133.755 98.794"/>
        <g>
          <path class="cls-1" d="M134.41,55.5392V97.3514c0,1.42-.9967,1.995-2.2262,1.2852l-56.489-32.614a4.92,4.92,0,0,1-2.2261-3.8557V20.3547Z"/>
          <g>
            <path class="cls-3" d="M129.12,43.3986a.8193.8193,0,0,0-.0992.4139,2.0365,2.0365,0,0,0,.9214,1.5959.8536.8536,0,0,0,.38.1224c-.1508.2628-.46.3267-.8221.118a2.0365,2.0365,0,0,1-.9214-1.5958C128.5791,43.6223,128.8018,43.3821,129.12,43.3986Z"/>
            <path class="cls-3" d="M126.5757,41.9277a.82.82,0,0,0-.0993.4139,2.0368,2.0368,0,0,0,.9214,1.5959.8543.8543,0,0,0,.38.1224c-.1509.2628-.4606.3267-.8222.118a2.0367,2.0367,0,0,1-.9213-1.5959C126.0344,42.1514,126.257,41.9111,126.5757,41.9277Z"/>
            <path class="cls-3" d="M121.0246,38.7234a.82.82,0,0,0-.0991.4139,2.0367,2.0367,0,0,0,.9213,1.5958.8523.8523,0,0,0,.38.1224c-.1509.2629-.4606.3268-.8222.118a2.0366,2.0366,0,0,1-.9214-1.5958C120.4833,38.9471,120.706,38.7068,121.0246,38.7234Z"/>
            <path class="cls-3" d="M118.48,37.2524a.82.82,0,0,0-.0992.4139,2.0367,2.0367,0,0,0,.9213,1.5959.8514.8514,0,0,0,.38.1224c-.1509.2629-.4606.3268-.8221.118a2.0363,2.0363,0,0,1-.9214-1.5958C117.9386,37.4762,118.1612,37.2359,118.48,37.2524Z"/>
            <path class="cls-3" d="M112.9289,34.0481a.8192.8192,0,0,0-.0993.4139,2.0367,2.0367,0,0,0,.9214,1.5959.8524.8524,0,0,0,.38.1223c-.1509.2629-.4606.3268-.8222.1181a2.0368,2.0368,0,0,1-.9214-1.5959C112.3875,34.2718,112.61,34.0315,112.9289,34.0481Z"/>
            <path class="cls-3" d="M110.3841,32.5772a.82.82,0,0,0-.0992.4139,2.0363,2.0363,0,0,0,.9214,1.5958.8526.8526,0,0,0,.38.1225c-.1508.2628-.46.3267-.8221.118a2.0365,2.0365,0,0,1-.9214-1.5959C109.8428,32.8009,110.0655,32.5606,110.3841,32.5772Z"/>
            <path class="cls-3" d="M104.8331,29.3728a.82.82,0,0,0-.0993.4139,2.0368,2.0368,0,0,0,.9214,1.5959.8543.8543,0,0,0,.38.1224c-.1509.2628-.4606.3267-.8222.118a2.0367,2.0367,0,0,1-.9213-1.5958C104.2918,29.5965,104.5144,29.3562,104.8331,29.3728Z"/>
            <path class="cls-3" d="M102.2883,27.9019a.82.82,0,0,0-.0992.4139,2.0365,2.0365,0,0,0,.9214,1.5959.8535.8535,0,0,0,.38.1224c-.1509.2628-.4606.3268-.8222.118a2.0364,2.0364,0,0,1-.9213-1.5959C101.7471,28.1256,101.97,27.8853,102.2883,27.9019Z"/>
            <path class="cls-3" d="M96.7373,24.6976a.8193.8193,0,0,0-.0992.4139,2.0363,2.0363,0,0,0,.9214,1.5958.8507.8507,0,0,0,.38.1224c-.1509.2629-.4606.3268-.8221.118a2.0363,2.0363,0,0,1-.9214-1.5958C96.196,24.9213,96.4186,24.681,96.7373,24.6976Z"/>
            <path class="cls-3" d="M94.1926,23.2267a.8192.8192,0,0,0-.0993.4139,2.0365,2.0365,0,0,0,.9214,1.5958.851.851,0,0,0,.38.1224c-.1509.2629-.4607.3268-.8222.118a2.0364,2.0364,0,0,1-.9213-1.5958C93.6513,23.45,93.8739,23.21,94.1926,23.2267Z"/>
            <path class="cls-3" d="M88.6415,20.0223a.8193.8193,0,0,0-.0992.4139,2.0367,2.0367,0,0,0,.9214,1.5959.852.852,0,0,0,.38.1223c-.1509.2629-.46.3268-.8221.1181A2.0365,2.0365,0,0,1,88.1,20.6766C88.1,20.246,88.3228,20.0057,88.6415,20.0223Z"/>
            <path class="cls-3" d="M86.0968,18.5514a.8192.8192,0,0,0-.0993.4139,2.0366,2.0366,0,0,0,.9214,1.5958.8529.8529,0,0,0,.38.1225c-.1509.2628-.4606.3267-.8222.1179a2.0363,2.0363,0,0,1-.9213-1.5958C85.5555,18.7751,85.7781,18.5348,86.0968,18.5514Z"/>
            <path class="cls-3" d="M80.5457,15.347a.82.82,0,0,0-.0992.4139,2.0365,2.0365,0,0,0,.9214,1.5959.8536.8536,0,0,0,.38.1224c-.1508.2628-.46.3267-.8221.118a2.0365,2.0365,0,0,1-.9214-1.5959C80.0044,15.5707,80.2271,15.33,80.5457,15.347Z"/>
            <path class="cls-3" d="M78.001,13.8761a.82.82,0,0,0-.0992.4139,2.0367,2.0367,0,0,0,.9213,1.5959.8539.8539,0,0,0,.38.1224c-.1509.2628-.4606.3268-.8221.118A2.0365,2.0365,0,0,1,77.46,14.53C77.46,14.1,77.6823,13.86,78.001,13.8761Z"/>
          </g>
          <path class="cls-2" d="M73.4691,12.05v8.3044L134.41,55.5392V47.2348a4.92,4.92,0,0,0-2.2262-3.8557L75.6952,10.7652C74.4657,10.0553,73.4691,10.6307,73.4691,12.05Zm55.112,32.0039c0-.5863.4115-.824.9193-.5308a2.0319,2.0319,0,0,1,.9193,1.5923c0,.5862-.4116.8239-.9193.5307A2.0317,2.0317,0,0,1,128.5811,44.0542Zm-2.5467-1.47c0-.5863.4115-.824.9193-.5308a2.0319,2.0319,0,0,1,.9193,1.5923c0,.5862-.4116.8238-.9193.5307A2.032,2.032,0,0,1,126.0344,42.5839ZM120.4853,39.38c0-.5862.4116-.8239.9193-.5307a2.0319,2.0319,0,0,1,.9193,1.5923c0,.5863-.4116.8238-.9193.5308A2.0323,2.0323,0,0,1,120.4853,39.38Zm-2.5467-1.47c0-.5863.4116-.8239.9194-.5308a2.0322,2.0322,0,0,1,.9192,1.5924c0,.5862-.4115.8238-.9192.5307A2.0318,2.0318,0,0,1,117.9386,37.91ZM112.39,34.7059c0-.5862.4116-.8239.9193-.5307a2.0318,2.0318,0,0,1,.9194,1.5923c0,.5862-.4116.8239-.9194.5307A2.0319,2.0319,0,0,1,112.39,34.7059Zm-2.5467-1.47c0-.5863.4116-.8239.9193-.5307a2.0318,2.0318,0,0,1,.9194,1.5923c0,.5862-.4116.8238-.9194.5307A2.0319,2.0319,0,0,1,109.8428,33.2356Zm-5.5491-3.2037c0-.5863.4116-.824.9193-.5308a2.0321,2.0321,0,0,1,.9194,1.5923c0,.5863-.4117.8238-.9194.5307A2.0319,2.0319,0,0,1,104.2937,30.0319Zm-2.5466-1.47c0-.5863.4115-.8239.9192-.5308a2.0321,2.0321,0,0,1,.9194,1.5924c0,.5862-.4116.8238-.9194.5307A2.0322,2.0322,0,0,1,101.7471,28.5615Zm-5.5492-3.2038c0-.5862.4116-.8239.9194-.5307a2.0319,2.0319,0,0,1,.9193,1.5923c0,.5863-.4116.8239-.9193.5307A2.0318,2.0318,0,0,1,96.1979,25.3577Zm-2.5466-1.47c0-.5863.4115-.8239.9193-.5307a2.0319,2.0319,0,0,1,.9193,1.5922c0,.5863-.4116.8239-.9193.5308A2.0317,2.0317,0,0,1,93.6513,23.8874Zm-5.5492-3.2038c0-.5862.4116-.8239.9194-.5307a2.0319,2.0319,0,0,1,.9193,1.5923c0,.5863-.4116.8238-.9193.5307A2.0318,2.0318,0,0,1,88.1021,20.6836Zm-2.5466-1.47c0-.5863.4115-.8239.9193-.5308a2.0323,2.0323,0,0,1,.9193,1.5924c0,.5862-.4116.8238-.9193.5307A2.032,2.032,0,0,1,85.5555,19.2133ZM80.0064,16.01c0-.5863.4116-.8239.9193-.5307a2.0319,2.0319,0,0,1,.9193,1.5923c0,.5863-.4116.8239-.9193.5307A2.0319,2.0319,0,0,1,80.0064,16.01Zm-2.5467-1.47c0-.5863.4116-.8239.9193-.5308a2.0321,2.0321,0,0,1,.9193,1.5923c0,.5863-.4116.8239-.9193.5308A2.0319,2.0319,0,0,1,77.46,14.5392Z"/>
          <path class="cls-3" d="M82.7315,22.8752l42.4164,24.489c.3365.1944.6094-.0119.6094-.4607h0a1.46,1.46,0,0,0-.6094-1.1644L82.7315,21.25c-.3366-.1943-.6094.012-.6094.4608h0A1.46,1.46,0,0,0,82.7315,22.8752Z"/>
          <g>
            <polygon class="cls-2" points="81.868 37.235 86.207 39.741 86.207 36.067 81.868 33.562 81.868 37.235"/>
            <polygon class="cls-2" points="88.502 41.066 92.841 43.571 92.841 39.897 88.502 37.392 88.502 41.066"/>
            <polygon class="cls-2" points="81.868 43.234 86.207 45.739 86.207 42.065 81.868 39.56 81.868 43.234"/>
            <polygon class="cls-2" points="88.502 47.064 92.841 49.569 92.841 45.896 88.502 43.39 88.502 47.064"/>
            <polygon class="cls-6" points="95.136 50.894 99.475 53.399 99.475 49.726 95.136 47.22 95.136 50.894"/>
            <polygon class="cls-6" points="101.77 54.724 106.109 57.23 106.109 53.556 101.77 51.051 101.77 54.724"/>
            <polygon class="cls-6" points="108.404 58.555 112.744 61.06 112.744 57.386 108.404 54.881 108.404 58.555"/>
            <polygon class="cls-6" points="115.038 62.385 119.378 64.89 119.378 61.216 115.038 58.711 115.038 62.385"/>
            <polygon class="cls-6" points="121.672 66.215 126.012 68.72 126.012 65.047 121.672 62.541 121.672 66.215"/>
            <polygon class="cls-2" points="81.868 49.232 86.207 51.737 86.207 48.063 81.868 45.558 81.868 49.232"/>
            <polygon class="cls-2" points="88.502 53.062 92.841 55.567 92.841 51.894 88.502 49.388 88.502 53.062"/>
            <polygon class="cls-6" points="95.136 56.892 99.475 59.398 99.475 55.724 95.136 53.219 95.136 56.892"/>
            <polygon class="cls-6" points="101.77 60.722 106.109 63.228 106.109 59.554 101.77 57.049 101.77 60.722"/>
            <polygon class="cls-6" points="108.404 64.553 112.744 67.058 112.744 63.384 108.404 60.879 108.404 64.553"/>
            <polygon class="cls-6" points="115.038 68.383 119.378 70.888 119.378 67.215 115.038 64.709 115.038 68.383"/>
            <polygon class="cls-6" points="121.672 72.213 126.012 74.718 126.012 71.045 121.672 68.539 121.672 72.213"/>
            <polygon class="cls-2" points="81.868 55.23 86.207 57.735 86.207 54.062 81.868 51.556 81.868 55.23"/>
            <polygon class="cls-2" points="88.502 59.06 92.841 61.565 92.841 57.892 88.502 55.386 88.502 59.06"/>
            <polygon class="cls-6" points="95.136 62.89 99.475 65.396 99.475 61.722 95.136 59.217 95.136 62.89"/>
            <polygon class="cls-6" points="101.77 66.721 106.109 69.226 106.109 65.552 101.77 63.047 101.77 66.721"/>
            <polygon class="cls-6" points="108.404 70.551 112.744 73.056 112.744 69.382 108.404 66.877 108.404 70.551"/>
            <polygon class="cls-6" points="115.038 74.381 119.378 76.886 119.378 73.213 115.038 70.707 115.038 74.381"/>
            <polygon class="cls-6" points="121.672 78.211 126.012 80.717 126.012 77.043 121.672 74.538 121.672 78.211"/>
            <polygon class="cls-2" points="81.868 61.228 86.207 63.733 86.207 60.06 81.868 57.554 81.868 61.228"/>
            <polygon class="cls-2" points="88.502 65.058 92.841 67.564 92.841 63.89 88.502 61.385 88.502 65.058"/>
            <polygon class="cls-6" points="95.136 68.888 99.475 71.394 99.475 67.72 95.136 65.215 95.136 68.888"/>
            <polygon class="cls-6" points="101.77 72.719 106.109 75.224 106.109 71.55 101.77 69.045 101.77 72.719"/>
            <polygon class="cls-6" points="108.404 76.549 112.744 79.054 112.744 75.381 108.404 72.875 108.404 76.549"/>
            <polygon class="cls-6" points="115.038 80.379 119.378 82.884 119.378 79.211 115.038 76.706 115.038 80.379"/>
            <polygon class="cls-6" points="121.672 84.209 126.012 86.715 126.012 83.041 121.672 80.536 121.672 84.209"/>
          </g>
        </g>
        <g>
          <path class="cls-1" d="M125.3259,41.0513c0,2.0241,1.4211,2.8445,3.174,1.8324a7.0154,7.0154,0,0,0,3.174-5.4975c0-2.024-1.421-2.8444-3.174-1.8323A7.0155,7.0155,0,0,0,125.3259,41.0513Zm.677-.3908a5.52,5.52,0,0,1,2.497-4.325c1.3791-.7962,2.497-.1508,2.497,1.4416A5.519,5.519,0,0,1,128.5,42.102C127.1209,42.8983,126.0029,42.2528,126.0029,40.6605Z"/>
          <polygon class="cls-1" points="126.559 43.339 126.207 43.077 126.507 43.149 126.559 43.339"/>
          <polygon class="cls-1" points="130.862 35.407 131.347 35.762 130.948 35.88 130.862 35.407"/>
          <path class="cls-3" d="M125.7627,41.3709c0,2.0241,1.4211,2.8445,3.174,1.8324a7.0152,7.0152,0,0,0,3.174-5.4974c0-2.0241-1.421-2.8445-3.174-1.8324A7.0158,7.0158,0,0,0,125.7627,41.3709Zm.677-.3908a5.5193,5.5193,0,0,1,2.497-4.3249c1.3792-.7962,2.4971-.1508,2.4971,1.4415a5.5189,5.5189,0,0,1-2.4971,4.3249C127.5577,43.2179,126.44,42.5725,126.44,40.98Z"/>
        </g>
        <polygon class="cls-3" points="129.061 41.632 129.534 41.11 130.895 41.897 130.022 42.343 129.061 41.632"/>
        <path class="cls-2" d="M129.0441,41.5648l1.231.712-.8447.8378-1.5712.7014a1.9613,1.9613,0,0,0-.5362-1.4615Z"/>
        <g>
          <path class="cls-1" d="M117.226,36.3745c0,2.024,1.421,2.8445,3.174,1.8324a7.0157,7.0157,0,0,0,3.1739-5.4975c0-2.024-1.421-2.8445-3.1739-1.8324A7.0156,7.0156,0,0,0,117.226,36.3745Zm.6769-.3909A5.5193,5.5193,0,0,1,120.4,31.6587c1.3791-.7962,2.497-.1508,2.497,1.4416a5.519,5.519,0,0,1-2.497,4.3249C119.0209,38.2214,117.9029,37.576,117.9029,35.9836Z"/>
          <polygon class="cls-1" points="118.459 38.662 118.107 38.4 118.407 38.472 118.459 38.662"/>
          <polygon class="cls-1" points="122.762 30.73 123.247 31.085 122.848 31.203 122.762 30.73"/>
          <path class="cls-3" d="M117.6628,36.6941c0,2.0241,1.4211,2.8445,3.174,1.8324a7.0158,7.0158,0,0,0,3.174-5.4974c0-2.0241-1.4211-2.8445-3.174-1.8325A7.0158,7.0158,0,0,0,117.6628,36.6941Zm.677-.3909a5.5192,5.5192,0,0,1,2.497-4.3249c1.3791-.7962,2.497-.1507,2.497,1.4416a5.519,5.519,0,0,1-2.497,4.3249C119.4577,38.541,118.34,37.8957,118.34,36.3032Z"/>
        </g>
        <polygon class="cls-3" points="120.961 36.955 121.434 36.433 122.795 37.221 121.922 37.666 120.961 36.955"/>
        <path class="cls-2" d="M120.9442,36.888l1.2309.712-.8447.8377-1.5711.7014a1.9615,1.9615,0,0,0-.5362-1.4614Z"/>
        <g>
          <path class="cls-1" d="M119.7754,37.8478c0,2.0241,1.4211,2.8445,3.1741,1.8324a7.0156,7.0156,0,0,0,3.174-5.4974c0-2.0241-1.4211-2.8445-3.174-1.8324A7.0155,7.0155,0,0,0,119.7754,37.8478Zm.677-.3908a5.52,5.52,0,0,1,2.4971-4.325c1.379-.7962,2.497-.1507,2.497,1.4416a5.5193,5.5193,0,0,1-2.497,4.3249C121.57,39.6948,120.4524,39.0494,120.4524,37.457Z"/>
          <polygon class="cls-1" points="121.008 40.135 120.657 39.874 120.957 39.945 121.008 40.135"/>
          <polygon class="cls-1" points="125.311 32.203 125.797 32.559 125.397 32.676 125.311 32.203"/>
          <path class="cls-3" d="M120.2123,38.1674c0,2.0242,1.421,2.8445,3.174,1.8325a7.0158,7.0158,0,0,0,3.174-5.4975c0-2.0241-1.4211-2.8444-3.174-1.8324A7.0154,7.0154,0,0,0,120.2123,38.1674Zm.6769-.3908a5.52,5.52,0,0,1,2.4971-4.325c1.3791-.7962,2.497-.1507,2.497,1.4416a5.5192,5.5192,0,0,1-2.497,4.325C122.0072,40.0144,120.8892,39.369,120.8892,37.7766Z"/>
        </g>
        <polygon class="cls-3" points="123.511 38.428 123.983 37.906 125.345 38.694 124.472 39.139 123.511 38.428"/>
        <path class="cls-2" d="M123.4937,38.3614l1.2309.7119-.8447.8378-1.5711.7014a1.9617,1.9617,0,0,0-.5362-1.4615Z"/>
        <g>
          <path class="cls-1" d="M109.1244,31.6849c0,2.0241,1.421,2.8445,3.174,1.8324a7.0156,7.0156,0,0,0,3.174-5.4974c0-2.0241-1.4211-2.8445-3.174-1.8325A7.0156,7.0156,0,0,0,109.1244,31.6849Zm.677-.3909a5.5192,5.5192,0,0,1,2.497-4.3249c1.3791-.7962,2.4971-.1508,2.4971,1.4416a5.519,5.519,0,0,1-2.4971,4.3249C110.9193,33.5318,109.8014,32.8864,109.8014,31.294Z"/>
          <polygon class="cls-1" points="110.357 33.972 110.006 33.711 110.306 33.782 110.357 33.972"/>
          <polygon class="cls-1" points="114.66 26.04 115.146 26.396 114.746 26.513 114.66 26.04"/>
          <path class="cls-3" d="M109.5612,32.0045c0,2.0241,1.4211,2.8445,3.174,1.8324a7.0153,7.0153,0,0,0,3.1741-5.4974c0-2.0241-1.4211-2.8445-3.1741-1.8324A7.0155,7.0155,0,0,0,109.5612,32.0045Zm.677-.3908a5.52,5.52,0,0,1,2.497-4.325c1.3791-.7962,2.4971-.1507,2.4971,1.4416a5.5193,5.5193,0,0,1-2.4971,4.325C111.3562,33.8515,110.2382,33.206,110.2382,31.6137Z"/>
        </g>
        <polygon class="cls-3" points="112.859 32.265 113.317 31.749 114.682 32.537 113.821 32.976 112.859 32.265"/>
        <path class="cls-2" d="M112.833,32.2136l1.2327.7047-.8369.83-1.5566.695a2.0065,2.0065,0,0,0-.5507-1.4551Z"/>
        <g>
          <path class="cls-1" d="M111.6739,33.1582c0,2.0241,1.421,2.8446,3.174,1.8325a7.0158,7.0158,0,0,0,3.174-5.4975c0-2.0241-1.4211-2.8445-3.174-1.8324A7.0155,7.0155,0,0,0,111.6739,33.1582Zm.677-.3908a5.519,5.519,0,0,1,2.497-4.3249c1.3791-.7962,2.497-.1508,2.497,1.4416a5.5192,5.5192,0,0,1-2.497,4.3249C113.4688,35.0052,112.3509,34.36,112.3509,32.7674Z"/>
          <polygon class="cls-1" points="112.907 35.446 112.555 35.184 112.855 35.256 112.907 35.446"/>
          <polygon class="cls-1" points="117.21 27.514 117.695 27.869 117.295 27.986 117.21 27.514"/>
          <path class="cls-3" d="M112.1107,33.4779c0,2.024,1.421,2.8445,3.174,1.8324a7.0156,7.0156,0,0,0,3.174-5.4975c0-2.024-1.421-2.8444-3.174-1.8324A7.0156,7.0156,0,0,0,112.1107,33.4779Zm.6769-.3909a5.5193,5.5193,0,0,1,2.4971-4.3249c1.3791-.7962,2.4971-.1508,2.4971,1.4416a5.5192,5.5192,0,0,1-2.4971,4.3249C113.9056,35.3248,112.7876,34.6794,112.7876,33.087Z"/>
        </g>
        <polygon class="cls-3" points="115.409 33.739 115.882 33.217 117.243 34.004 116.37 34.45 115.409 33.739"/>
        <path class="cls-2" d="M115.3921,33.6718l1.231.712-.8448.8377-1.56.6965a1.9814,1.9814,0,0,0-.5473-1.4482Z"/>
        <g>
          <path class="cls-1" d="M101.0228,26.9953c0,2.0241,1.4211,2.8445,3.1741,1.8324a7.0156,7.0156,0,0,0,3.174-5.4974c0-2.0241-1.4211-2.8445-3.174-1.8324A7.0155,7.0155,0,0,0,101.0228,26.9953Zm.677-.3908a5.519,5.519,0,0,1,2.4971-4.3249c1.379-.7963,2.497-.1508,2.497,1.4415a5.5193,5.5193,0,0,1-2.497,4.3249C102.8178,28.8422,101.7,28.1968,101.7,26.6045Z"/>
          <polygon class="cls-1" points="102.256 29.283 101.904 29.021 102.204 29.093 102.256 29.283"/>
          <polygon class="cls-1" points="106.559 21.351 107.044 21.706 106.644 21.824 106.559 21.351"/>
          <path class="cls-3" d="M101.46,27.315c0,2.024,1.421,2.8444,3.174,1.8323a7.0152,7.0152,0,0,0,3.174-5.4974c0-2.0241-1.421-2.8445-3.174-1.8324A7.0154,7.0154,0,0,0,101.46,27.315Zm.6769-.3909a5.5192,5.5192,0,0,1,2.4971-4.3249c1.379-.7963,2.497-.1508,2.497,1.4415a5.52,5.52,0,0,1-2.497,4.325C103.2546,29.1619,102.1366,28.5165,102.1366,26.9241Z"/>
        </g>
        <polygon class="cls-3" points="104.758 27.576 105.215 27.071 106.57 27.853 105.719 28.287 104.758 27.576"/>
        <path class="cls-2" d="M104.716,27.52l1.2505.722-.8392.8163-1.5486.6914a2.0579,2.0579,0,0,0-.5679-1.4433Z"/>
        <g>
          <path class="cls-1" d="M103.5723,28.4687c0,2.024,1.4211,2.8444,3.1741,1.8323a7.0155,7.0155,0,0,0,3.174-5.4973c0-2.0242-1.4211-2.8445-3.174-1.8325A7.0157,7.0157,0,0,0,103.5723,28.4687Zm.677-.3909a5.5193,5.5193,0,0,1,2.4971-4.3249c1.379-.7962,2.497-.1508,2.497,1.4416a5.5193,5.5193,0,0,1-2.497,4.3249C105.3673,30.3156,104.2493,29.67,104.2493,28.0778Z"/>
          <polygon class="cls-1" points="104.805 30.756 104.454 30.494 104.754 30.566 104.805 30.756"/>
          <polygon class="cls-1" points="109.108 22.824 109.594 23.18 109.194 23.297 109.108 22.824"/>
          <path class="cls-3" d="M104.0091,28.7883c0,2.0241,1.4211,2.8444,3.1741,1.8324a7.0156,7.0156,0,0,0,3.174-5.4974c0-2.0241-1.4211-2.8445-3.174-1.8324A7.0153,7.0153,0,0,0,104.0091,28.7883Zm.677-.3909a5.5193,5.5193,0,0,1,2.4971-4.3249c1.379-.7962,2.497-.1508,2.497,1.4416a5.52,5.52,0,0,1-2.497,4.325C105.8041,30.6352,104.6861,29.99,104.6861,28.3974Z"/>
        </g>
        <polygon class="cls-3" points="107.307 29.049 107.765 28.543 109.124 29.324 108.269 29.76 107.307 29.049"/>
        <path class="cls-2" d="M107.2669,28.9931l1.24.7158-.83.823-1.5529.7015A2.0585,2.0585,0,0,0,105.56,29.78Z"/>
        <g>
          <path class="cls-1" d="M92.9213,22.3057c0,2.0241,1.4211,2.8445,3.174,1.8325a7.0156,7.0156,0,0,0,3.174-5.4975c0-2.0241-1.421-2.8445-3.174-1.8324A7.0158,7.0158,0,0,0,92.9213,22.3057Zm.677-.3908a5.5189,5.5189,0,0,1,2.497-4.3249c1.3791-.7963,2.4971-.1508,2.4971,1.4416a5.519,5.519,0,0,1-2.4971,4.3248C94.7162,24.1527,93.5983,23.5073,93.5983,21.9149Z"/>
          <polygon class="cls-1" points="94.154 24.593 93.803 24.331 94.103 24.403 94.154 24.593"/>
          <polygon class="cls-1" points="98.457 16.661 98.942 17.017 98.543 17.134 98.457 16.661"/>
          <path class="cls-3" d="M93.3581,22.6254c0,2.024,1.421,2.8444,3.174,1.8324a7.0156,7.0156,0,0,0,3.174-5.4975c0-2.0241-1.421-2.8445-3.174-1.8324A7.0156,7.0156,0,0,0,93.3581,22.6254Zm.677-.3909a5.519,5.519,0,0,1,2.497-4.3249c1.3791-.7962,2.4971-.1508,2.4971,1.4416a5.5193,5.5193,0,0,1-2.4971,4.3249C95.153,24.4723,94.0351,23.8269,94.0351,22.2345Z"/>
        </g>
        <polygon class="cls-3" points="96.656 22.886 97.106 22.389 98.457 23.169 97.618 23.597 96.656 22.886"/>
        <path class="cls-2" d="M96.6028,22.8361l1.2544.7243-.8315.8086-1.5408.6879a2.0711,2.0711,0,0,0-.5757-1.43Z"/>
        <g>
          <path class="cls-1" d="M95.4708,23.7791c0,2.0241,1.421,2.8445,3.174,1.8324a7.0155,7.0155,0,0,0,3.174-5.4974c0-2.0241-1.421-2.8446-3.174-1.8325A7.0156,7.0156,0,0,0,95.4708,23.7791Zm.6769-.3909a5.5193,5.5193,0,0,1,2.4971-4.3249c1.3791-.7962,2.497-.1508,2.497,1.4416a5.519,5.519,0,0,1-2.497,4.3249C97.2657,25.626,96.1477,24.9806,96.1477,23.3882Z"/>
          <polygon class="cls-1" points="96.704 26.067 96.352 25.805 96.652 25.877 96.704 26.067"/>
          <polygon class="cls-1" points="101.007 18.135 101.492 18.49 101.092 18.607 101.007 18.135"/>
          <path class="cls-3" d="M95.9076,24.0987c0,2.0241,1.421,2.8445,3.174,1.8324a7.0155,7.0155,0,0,0,3.174-5.4974c0-2.0241-1.4211-2.8445-3.174-1.8324A7.0154,7.0154,0,0,0,95.9076,24.0987Zm.677-.3909a5.5192,5.5192,0,0,1,2.497-4.3249c1.3791-.7962,2.497-.1507,2.497,1.4416a5.5194,5.5194,0,0,1-2.497,4.325C97.7025,25.9456,96.5846,25.3,96.5846,23.7078Z"/>
        </g>
        <polygon class="cls-3" points="99.206 24.36 99.657 23.862 101.008 24.642 100.167 25.07 99.206 24.36"/>
        <path class="cls-2" d="M99.1536,24.3088l1.2517.7227-.83.8109-1.544.6893a2.1088,2.1088,0,0,0-.58-1.44Z"/>
        <g>
          <path class="cls-1" d="M84.82,17.6162c0,2.024,1.4211,2.8445,3.174,1.8324a7.0156,7.0156,0,0,0,3.174-5.4975c0-2.0241-1.421-2.8444-3.174-1.8324A7.0158,7.0158,0,0,0,84.82,17.6162Zm.677-.3909A5.52,5.52,0,0,1,87.9937,12.9c1.3792-.7962,2.4971-.1508,2.4971,1.4416a5.5189,5.5189,0,0,1-2.4971,4.3249C86.6147,19.4631,85.4967,18.8177,85.4967,17.2253Z"/>
          <polygon class="cls-1" points="86.053 19.904 85.701 19.642 86.001 19.714 86.053 19.904"/>
          <polygon class="cls-1" points="90.356 11.972 90.841 12.327 90.441 12.444 90.356 11.972"/>
          <path class="cls-3" d="M85.2566,17.9358c0,2.0241,1.421,2.8445,3.174,1.8324a7.0158,7.0158,0,0,0,3.174-5.4974c0-2.0242-1.4211-2.8445-3.174-1.8325A7.0156,7.0156,0,0,0,85.2566,17.9358Zm.6769-.3909A5.5193,5.5193,0,0,1,88.4306,13.22c1.379-.7962,2.497-.1508,2.497,1.4416a5.5193,5.5193,0,0,1-2.497,4.3249C87.0515,19.7827,85.9335,19.1373,85.9335,17.5449Z"/>
        </g>
        <polygon class="cls-3" points="88.555 18.197 88.998 17.708 90.344 18.485 89.516 18.908 88.555 18.197"/>
        <path class="cls-2" d="M88.483,18.1482l1.2548.7244-.8136.8068-1.5334.6846a2.0054,2.0054,0,0,0-.59-1.4248Z"/>
        <g>
          <path class="cls-1" d="M87.3692,19.09c0,2.0241,1.4211,2.8445,3.174,1.8324a7.0154,7.0154,0,0,0,3.174-5.4974c0-2.0241-1.421-2.8445-3.174-1.8324A7.0155,7.0155,0,0,0,87.3692,19.09Zm.677-.3909a5.52,5.52,0,0,1,2.497-4.3249c1.3791-.7962,2.4971-.1508,2.4971,1.4416A5.519,5.519,0,0,1,90.5432,20.14C89.1642,20.9365,88.0462,20.291,88.0462,18.6986Z"/>
          <polygon class="cls-1" points="88.602 21.377 88.251 21.115 88.551 21.187 88.602 21.377"/>
          <polygon class="cls-1" points="92.905 13.445 93.39 13.8 92.991 13.918 92.905 13.445"/>
          <path class="cls-3" d="M87.806,19.4091c0,2.0241,1.4211,2.8445,3.174,1.8325a7.0157,7.0157,0,0,0,3.1741-5.4975c0-2.0241-1.4211-2.8445-3.1741-1.8324A7.0155,7.0155,0,0,0,87.806,19.4091Zm.677-.3908a5.52,5.52,0,0,1,2.497-4.325c1.3791-.7962,2.4971-.1508,2.4971,1.4416A5.5193,5.5193,0,0,1,90.98,20.46C89.601,21.2561,88.483,20.6106,88.483,19.0183Z"/>
        </g>
        <polygon class="cls-3" points="91.104 19.67 91.548 19.18 92.895 19.958 92.066 20.381 91.104 19.67"/>
        <path class="cls-2" d="M91.04,19.6246l1.2478.72-.8145.8078-1.5365.686a1.9061,1.9061,0,0,0-.5918-1.4312Z"/>
        <g>
          <path class="cls-1" d="M76.7182,12.9266c0,2.0241,1.421,2.8445,3.174,1.8324a7.0158,7.0158,0,0,0,3.174-5.4975c0-2.024-1.4211-2.8444-3.174-1.8324A7.0156,7.0156,0,0,0,76.7182,12.9266Zm.6769-.3909a5.5192,5.5192,0,0,1,2.4971-4.3249c1.3791-.7962,2.4971-.1508,2.4971,1.4416a5.5192,5.5192,0,0,1-2.4971,4.3249C78.5131,14.7735,77.3951,14.1281,77.3951,12.5357Z"/>
          <polygon class="cls-1" points="77.951 15.214 77.6 14.952 77.9 15.024 77.951 15.214"/>
          <polygon class="cls-1" points="82.254 7.282 82.739 7.638 82.34 7.755 82.254 7.282"/>
          <path class="cls-3" d="M77.155,13.2462c0,2.0241,1.4211,2.8445,3.174,1.8324a7.0155,7.0155,0,0,0,3.174-5.4974c0-2.0241-1.421-2.8445-3.174-1.8324A7.0155,7.0155,0,0,0,77.155,13.2462Zm.677-.3908A5.5194,5.5194,0,0,1,80.329,8.53c1.3791-.7962,2.497-.1507,2.497,1.4416a5.519,5.519,0,0,1-2.497,4.3249C78.95,15.0931,77.832,14.4477,77.832,12.8554Z"/>
        </g>
        <polygon class="cls-3" points="80.453 13.507 80.889 13.026 82.232 13.801 81.415 14.218 80.453 13.507"/>
        <path class="cls-2" d="M80.3815,13.4707l1.247.72-.8059.7991-1.5264.6815a1.9962,1.9962,0,0,0-.611-1.4257Z"/>
        <g>
          <path class="cls-1" d="M79.2676,14.4c0,2.0241,1.4211,2.8445,3.1741,1.8324a7.0155,7.0155,0,0,0,3.174-5.4974c0-2.0241-1.4211-2.8445-3.174-1.8324A7.0156,7.0156,0,0,0,79.2676,14.4Zm.677-.3908a5.519,5.519,0,0,1,2.4971-4.3249c1.379-.7963,2.497-.1508,2.497,1.4415a5.5192,5.5192,0,0,1-2.497,4.3249C81.0626,16.2469,79.9446,15.6014,79.9446,14.0091Z"/>
          <polygon class="cls-1" points="80.5 16.687 80.149 16.426 80.449 16.497 80.5 16.687"/>
          <polygon class="cls-1" points="84.803 8.755 85.289 9.111 84.889 9.228 84.803 8.755"/>
          <path class="cls-3" d="M79.7045,14.72c0,2.024,1.421,2.8444,3.174,1.8323a7.0155,7.0155,0,0,0,3.174-5.4974c0-2.0241-1.4211-2.8444-3.174-1.8324A7.0156,7.0156,0,0,0,79.7045,14.72Zm.677-.3909a5.519,5.519,0,0,1,2.497-4.3249c1.3791-.7962,2.497-.1508,2.497,1.4415a5.5191,5.5191,0,0,1-2.497,4.325C81.4994,16.5665,80.3815,15.9211,80.3815,14.3287Z"/>
        </g>
        <polygon class="cls-3" points="83.003 14.98 83.439 14.499 84.782 15.274 83.964 15.691 83.003 14.98"/>
        <path class="cls-2" d="M82.9271,14.9405l1.2517.7227-.8067.8-1.5309.7014a2.0245,2.0245,0,0,0-.6077-1.4471Z"/>
        <g>
          <path class="cls-1" d="M127.873,42.5232c0,2.0241,1.4211,2.8445,3.1741,1.8324a7.0157,7.0157,0,0,0,3.1739-5.4975c0-2.024-1.421-2.8444-3.1739-1.8323A7.0153,7.0153,0,0,0,127.873,42.5232Zm.677-.3908a5.52,5.52,0,0,1,2.4971-4.325c1.379-.7962,2.497-.1508,2.497,1.4416a5.5193,5.5193,0,0,1-2.497,4.3249C129.668,44.37,128.55,43.7247,128.55,42.1324Z"/>
          <polygon class="cls-1" points="129.106 44.811 128.755 44.549 129.054 44.621 129.106 44.811"/>
          <polygon class="cls-1" points="133.409 36.879 133.894 37.234 133.495 37.351 133.409 36.879"/>
          <path class="cls-3" d="M128.31,42.8428c0,2.0241,1.421,2.8445,3.1739,1.8324a7.0155,7.0155,0,0,0,3.1741-5.4974c0-2.0241-1.4211-2.8445-3.1741-1.8324A7.0155,7.0155,0,0,0,128.31,42.8428Zm.6769-.3908a5.52,5.52,0,0,1,2.497-4.325c1.3791-.7962,2.4971-.1507,2.4971,1.4416a5.5192,5.5192,0,0,1-2.4971,4.3249C130.1048,44.69,128.9868,44.0444,128.9868,42.452Z"/>
        </g>
        <polygon class="cls-3" points="134.41 55.539 135.037 55.164 135.037 54.077 134.41 54.479 134.41 55.539"/>
        <path class="cls-3" d="M131.6081,43.1037l.4727-.5219a8.098,8.098,0,0,1,1.3151.849l-.8264.3837Z"/>
        <path class="cls-2" d="M131.5912,43.0367a5.9486,5.9486,0,0,1,1.51,1.0993c.48.5718-2.6948,1.1519-2.6948,1.1519a1.9613,1.9613,0,0,0-.5361-1.4615Z"/>
      </g>
      <g>
        <g>
          <g>
            <path class="cls-1" d="M30.8539,72.1056a8.0027,8.0027,0,0,0-1.0193-.4875l.01-.0007-1.9614-.8694.148.3425a12.6653,12.6653,0,0,0-4.5991-.0489l.0913-.38-2.3071,1.0223.0136.0009a7.8881,7.8881,0,0,0-.8626.421c-2.8957,1.6718-2.8957,4.3825,0,6.0543a11.5893,11.5893,0,0,0,10.4864,0C33.75,76.4881,33.75,73.7775,30.8539,72.1056Z"/>
            <path class="cls-2" d="M28.0678,73.6842a5.4306,5.4306,0,0,1-4.9139,0c-1.357-.7834-1.357-2.0537,0-2.8371a5.4308,5.4308,0,0,1,4.914,0C29.4247,71.6305,29.4248,72.9007,28.0678,73.6842Z"/>
          </g>
          <g>
            <path class="cls-2" d="M25.6108,72.8063h0A1.1812,1.1812,0,0,1,24.43,71.6251V56.6931H26.792v14.932A1.1811,1.1811,0,0,1,25.6108,72.8063Z"/>
            <path class="cls-2" d="M26.4417,57.2351a1.8841,1.8841,0,0,1-1.7051,0,.52.52,0,0,1,0-.9844,1.8841,1.8841,0,0,1,1.7051,0A.52.52,0,0,1,26.4417,57.2351Z"/>
          </g>
          <path class="cls-1" d="M25.6108,57.2059h0a.9576.9576,0,0,1-.9576-.9575V42.2118h1.9152V56.2484A.9575.9575,0,0,1,25.6108,57.2059Z"/>
          <g>
            <path class="cls-3" d="M39.379,49.5671v-.55l.7764-.1123.8693-.65a.5847.5847,0,0,1,.5727-.0213l.6415.37.6357-.0919v.5569l-.0026,0a.2108.2108,0,0,1-.146.1678l-2.0246.9019a.6364.6364,0,0,1-.5305-.02l-.6742-.3892a.1959.1959,0,0,1-.1143-.1634Z"/>
            <path class="cls-2" d="M39.4627,48.87l1.5621-1.1689a.5845.5845,0,0,1,.5727-.0212l1.1653.6728c.1629.094.1457.2494-.0367.3306l-2.0246.9019a.6364.6364,0,0,1-.5305-.02l-.6742-.3893C39.3537,49.0934,39.3391,48.9623,39.4627,48.87Z"/>
            <path class="cls-1" d="M36.8273,51.5214a1.2722,1.2722,0,0,0,.6255-.1542L39.88,49.9654a.28.28,0,0,0-.2808-.4852l-2.4269,1.4015a.8036.8036,0,0,1-.69,0L32.4479,48.545a.28.28,0,1,0-.28.4851l4.0342,2.3367A1.2656,1.2656,0,0,0,36.8273,51.5214Z"/>
          </g>
          <g>
            <polygon class="cls-10" points="13.488 46.386 17.386 44.121 15.202 43.134 13.334 44.459 13.488 46.386"/>
            <path class="cls-2" d="M38.5177,43.0229a5.1143,5.1143,0,0,1-.6558-.4081l-8.3056-6.087c-1.4994-1.0992-3.0436-1.3823-4.2373-.7769-.031.0158-.0578.0375-.0881.0544l-.0086-.0027L13.7509,42.4579l1.0309.343,4.0171,1.8217L24.264,48.5l4.3129,2.2888.1958.0415a9.4854,9.4854,0,0,0,2.7493-2.8088c1.0678-1.8688,4.0411-2.4037,5.79-3.9187.1764.1123.3529.2169.5291.3078A3.9255,3.9255,0,0,0,38.5177,43.0229Z"/>
            <path class="cls-3" d="M42.1611,40.2781a.7637.7637,0,0,0-.47.1642l-.0019-.0022L30.4633,46.9377l.41,1.6787.4209-.201A11.5334,11.5334,0,0,1,28.7727,50.83l1.2689.2689,10.9936-6.3969c.0507-.0221.1027-.0407.1522-.0658a2.7342,2.7342,0,0,0,.4234-.2692l.0192-.0111-.007,0a3.8752,3.8752,0,0,0,1.31-3.1746V41.05A.7717.7717,0,0,0,42.1611,40.2781Z"/>
            <g>
              <path class="cls-11" d="M26.7889,35.4409a4.7,4.7,0,0,1,2.2038.7131A4.7,4.7,0,0,0,26.7889,35.4409Z"/>
              <path class="cls-2" d="M31.9009,47.4608v-.1317a.7715.7715,0,0,0-1.5429,0v.1317a2.2,2.2,0,0,1-.9,2.0787,2.7,2.7,0,0,1-2.6275-.6456l-8.3059-6.0865a4.4223,4.4223,0,0,0-3.6854-.981l6.86-3.98-7.9484,4.6113,1.0309.3431,4.0171,1.8217L24.264,48.5l4.3129,2.2887.1959.0416a9.4874,9.4874,0,0,0,2.7492-2.8088,3.2366,3.2366,0,0,1,.3768-.5174C31.8989,47.489,31.9009,47.4755,31.9009,47.4608Z"/>
            </g>
            <path class="cls-1" d="M28.5731,51.4767a5.0036,5.0036,0,0,1-2.8912-1.089L17.376,44.3012a2.7,2.7,0,0,0-2.6276-.6456,2.2,2.2,0,0,0-.9,2.0786.7715.7715,0,1,1-1.5429,0A3.6441,3.6441,0,0,1,14.0508,42.28c1.1929-.6044,2.7378-.3216,4.2371.7772l8.306,6.0867a2.7,2.7,0,0,0,2.6274.6455,2.2,2.2,0,0,0,.9-2.0786v-.1317a.7715.7715,0,1,1,1.5429,0V47.71a3.6444,3.6444,0,0,1-1.7451,3.4548A2.9512,2.9512,0,0,1,28.5731,51.4767Z"/>
          </g>
        </g>
        <g>
          <g>
            <path class="cls-4" d="M22.0455,65.0844a2.1386,2.1386,0,0,0-2.525.3858,12.021,12.021,0,0,0-2.3766,5.8215c-.0426,1.8737,1.4828,1.7473,2.39,1.3038s3.5556-4.2858,3.7159-5.0386a2.6137,2.6137,0,0,0-.4439-1.97C22.5505,65.3877,22.0455,65.0844,22.0455,65.0844Z"/>
            <path class="cls-2" d="M22.3868,64.7075l.0724,1.6207a.9191.9191,0,0,1-.4579.8431,1.8042,1.8042,0,0,1-1.2068.1876c-1.1784-.1894-1.2836-.5261-1.3678-2.1464S22.3868,64.7075,22.3868,64.7075Z"/>
            <g>
              <path class="cls-4" d="M16.3192,61.9682a2.1386,2.1386,0,0,0-2.525.3858,12.0211,12.0211,0,0,0-2.3765,5.8214c-.0426,1.8738,1.4828,1.7474,2.39,1.3039s3.5555-4.2858,3.7159-5.0387a2.613,2.613,0,0,0-.4439-1.97C16.8243,62.2715,16.3192,61.9682,16.3192,61.9682Z"/>
              <path class="cls-2" d="M16.6606,61.5913l.0723,1.6207a.9189.9189,0,0,1-.4579.8431,1.8038,1.8038,0,0,1-1.2067.1876c-1.1784-.1894-1.2836-.5261-1.3678-2.1464S16.6606,61.5913,16.6606,61.5913Z"/>
              <path class="cls-1" d="M30.619,31.8365c-.4629-7.5334-8.1583,1.1083-8.1583,1.1083l-5.2671,5.1625-4.7428,5.21a4.675,4.675,0,0,0-1.178,3.7557l1.9186,14.6092a1.4357,1.4357,0,0,0,1.44,1.2478,4.88,4.88,0,0,0,.7108-.0622,1.7848,1.7848,0,0,0,1.5852-1.894L16.5764,47.31l9.96-6.0043S31.082,39.37,30.619,31.8365Z"/>
            </g>
            <path class="cls-1" d="M36.3452,34.7068c-.4629-7.5334-8.1584,1.1083-8.1584,1.1083L22.92,40.9776l-4.7428,5.21a4.6748,4.6748,0,0,0-1.178,3.7556l1.9186,14.6093a1.4358,1.4358,0,0,0,1.44,1.2478,4.8647,4.8647,0,0,0,.7107-.0623,1.7847,1.7847,0,0,0,1.5853-1.8939L22.3026,50.18l9.96-6.0043S36.8082,42.24,36.3452,34.7068Z"/>
            <path class="cls-2" d="M31.7926,10.5244c5.8342,2.4188,5.7173,5.8675,5.7173,5.8675a195.6638,195.6638,0,0,0-.7527,21.0875c.163,3.53-18.7545,3.7992-15.9333-5.6181,3.3265-11.1038,2.08-20.0929,3.6368-21.4487S30.2835,9.8987,31.7926,10.5244Z"/>
            <path class="cls-12" d="M33.67,13.5824c-.3052,1.1846-1.8572,1.8088-3.4666,1.3942s-2.6666-1.7108-2.3615-2.8954,1.8571-1.8088,3.4665-1.3943S33.9748,12.3979,33.67,13.5824Z"/>
            <path class="cls-6" d="M31.188,15.3823a4.2308,4.2308,0,0,1-1.0544-.1355,3.8874,3.8874,0,0,1-2.0456-1.2526,2.23,2.23,0,0,1-.5162-1.9825c.3428-1.3316,2.0513-2.046,3.8058-1.595S34.2827,12.32,33.94,13.6518h0A2.6666,2.6666,0,0,1,31.188,15.3823ZM30.31,10.8371a2.11,2.11,0,0,0-2.1979,1.3135,1.6885,1.6885,0,0,0,.4085,1.4906,3.322,3.322,0,0,0,1.752,1.0655c1.4581.3763,2.8611-.1595,3.1274-1.1938s-.7034-2.1806-2.1611-2.5561A3.7308,3.7308,0,0,0,30.31,10.8371Z"/>
            <path class="cls-12" d="M29.4534,10.2613a14.3787,14.3787,0,0,1-.0506,2.0828c-.0318.5812,2.0033,1.1242,2.5294.5981s.3156-1.0732.4419-3.0513S29.4534,10.2613,29.4534,10.2613Z"/>
            <path class="cls-13" d="M32.3741,9.8909a4.0989,4.0989,0,0,1-2.9717,2.5376l.0375-1.667Z"/>
            <circle class="cls-12" cx="29.5913" cy="6.3553" r="4.4909"/>
            <path class="cls-13" d="M30.6227,6.52a13.9038,13.9038,0,0,1-4.1846,1.0714C24.726,7.6036,25.1033,6.17,25.1033,6.17l5.0822-.7345Z"/>
            <path class="cls-7" d="M25.9277,6.7991a8.0208,8.0208,0,0,1,4.0434-.5331,1.98,1.98,0,0,1,1.1419.6787.6739.6739,0,0,0,.3456.25c.3349.0759.8835-1.3143,1.5348-1.3459s1.0858.4294.5519,1.2843-.3536,1.8117-.1079,1.9489,2.8519-1.8587.553-6.4126S25.8522.5681,24.944,1.491c0,0-.9569.8336-1.7349.0917C23.2091,1.5827,22.3369,8.1162,25.9277,6.7991Z"/>
            <path class="cls-12" d="M34.2371,25.6293v3.4163a1.3922,1.3922,0,0,1-.4542,1.0287l-7.0183,6.3985.7975,1.22L36.83,30.97a1.884,1.884,0,0,0,.7675-1.328l.6264-5.9581Z"/>
            <path class="cls-2" d="M37.016,14.6837s2.1291,3.2021,2.9224,11.6306c0,0-3.6371,1.1763-5.7013.5086S37.016,14.6837,37.016,14.6837Z"/>
            <path class="cls-3" d="M33.8483,18.7324a59.3743,59.3743,0,0,0-.8809,6.5578,1.3382,1.3382,0,0,0,.8809,1.2924h0Z"/>
          </g>
          <g>
            <path class="cls-4" d="M32.0274,40.9152,30.4763,40.71,20.463,34.9293a1.3918,1.3918,0,0,0-1.2524.0519l-7.0953,4.0949-.938-.1238v.9338h.001a.3653.3653,0,0,0,.2153.3287l11.3479,6.5518a1.3918,1.3918,0,0,0,1.2524-.052l7.7271-4.46a.5055.5055,0,0,0,.3064-.4212h0Z"/>
            <path class="cls-3" d="M24.5038,37.2622l-.7114-.4107H15.9711l-3.8558,2.2246-.938-.1238v.9338h.001a.3653.3653,0,0,0,.2153.3287l11.3479,6.5518a1.1751,1.1751,0,0,0,.6464.1211Z"/>
            <path class="cls-2" d="M11.5936,39.0073l-.4163-.055v.9338h.001a.3653.3653,0,0,0,.2153.3287l.2.1155Z"/>
            <path class="cls-5" d="M22.8558,46.82a1.454,1.454,0,0,0,1.0641-.0661V45.165H22.8558Z"/>
            <path class="cls-6" d="M22.7415,45.8335,11.3936,39.2818c-.321-.1854-.2807-.5091.09-.7231l7.7271-4.46a1.3918,1.3918,0,0,1,1.2524-.0519l11.348,6.5517c.321.1853.2807.509-.09.7231l-7.7271,4.46A1.3921,1.3921,0,0,1,22.7415,45.8335Z"/>
            <path class="cls-1" d="M22.55,44.8405l-9.4357-5.4478c-.2669-.1541-.2334-.4233.0748-.6012l4.1407-2.3285a1.1577,1.1577,0,0,1,1.0414-.0431l9.4357,5.4477c.267.1541.2335.4233-.0747.6013l-4.1408,2.3284A1.1574,1.1574,0,0,1,22.55,44.8405Z"/>
          </g>
          <path class="cls-12" d="M19.6494,33.8839l-.1174.783a5.7877,5.7877,0,0,0,.0511,2.0077l.14.69a.9705.9705,0,0,0,.7774.7623h0a.5353.5353,0,0,0,.6278-.4671l.1873-1.6739s.4283.5612.635.5612-.2313-1.6763-.699-2.6251S19.6494,33.8839,19.6494,33.8839Z"/>
          <path class="cls-12" d="M23.496,21.44l-1.2176,2.41a4.728,4.728,0,0,0-.4983,1.8292l-.5288,8.2431-1.6019-.038-.7271-9.2572a3.389,3.389,0,0,1,.0414-.8557l.8306-4.6942Z"/>
          <g>
            <path class="cls-4" d="M22.3571,46.4628l-.9515-1.2421L11.4,39.4274a1.3922,1.3922,0,0,1-.58-1.1113l.0087-8.1923-.5753-.751.5406-.3131.0005.0007a.3654.3654,0,0,1,.3924.0227l11.34,6.5655a1.3921,1.3921,0,0,1,.58,1.1113l-.01,8.9217a.5056.5056,0,0,1-.2121.4757h0Z"/>
            <path class="cls-3" d="M15.4375,41.7652l-.711-.4116-3.9023-6.7782.0041-4.4516-.5753-.751.5406-.3131.0005.0007a.3654.3654,0,0,1,.3924.0227l11.34,6.5655a1.1748,1.1748,0,0,1,.4275.5Z"/>
            <path class="cls-2" d="M10.5083,29.7061l-.2553-.3333.5406-.3131.0005.0007a.3654.3654,0,0,1,.3924.0227l.2.1157Z"/>
            <path class="cls-5" d="M22.6294,35.7212a1.4525,1.4525,0,0,1,.4737.9551l-1.1081.64-.531-.9222Z"/>
            <path class="cls-2" d="M21.9863,35.9613l-11.34-6.5655c-.3208-.1857-.5813.0107-.5818.4387l-.01,8.9217a1.3918,1.3918,0,0,0,.58,1.1113l11.34,6.5656c.3208.1857.5812-.0107.5818-.4387l.0095-8.9218A1.3919,1.3919,0,0,0,21.9863,35.9613Z"/>
          </g>
          <path class="cls-12" d="M27.5621,37.6923l-.1818.3764a2.5209,2.5209,0,0,1-.9478,1.0507l-1.1264.6944a1.1216,1.1216,0,0,1-1.15.0265l-.0384-.0232a.6776.6776,0,0,1-.0958-1.041l1.1771-1.21s-.6613.5066-.8466.3025c-.1359-.1495.6413-.8792,1.238-.9031a2.3553,2.3553,0,0,0,1.174-.4926Z"/>
          <path class="cls-2" d="M24.5775,10.395s-4.3152,4.6951-6.0559,9.0024a8.8094,8.8094,0,0,0,5.0875,3.7016C27.221,24.1421,24.5775,10.395,24.5775,10.395Z"/>
          <path class="cls-3" d="M22.7966,22.82l.6994-6.7562-1.648,6.33A9.4228,9.4228,0,0,0,22.7966,22.82Z"/>
          <path class="cls-6" d="M27.8094,9.4475l-1.16-.3186a2.799,2.799,0,0,0,1.3617,1.0929c.8082.222.9339-.4621.9339-.4621Z"/>
        </g>
      </g>
      <path class="cls-2" d="M123.5506,93.9816a.33.33,0,0,1-.1642-.0441L80.4279,69.1358a.33.33,0,1,1,.33-.5708l42.9584,24.8017a.33.33,0,0,1-.1652.6149Z"/>
      <polygon class="cls-1" points="15.529 112.777 19.839 115.333 16.636 117.133 12.326 114.577 15.529 112.777"/>
      <polygon class="cls-1" points="26.25 119.791 30.56 122.347 27.357 124.147 23.048 121.591 26.25 119.791"/>
      <polygon class="cls-7" points="35.701 125.788 40.011 128.343 36.808 130.143 32.498 127.587 35.701 125.788"/>
      <polygon class="cls-7" points="61.688 60.567 65.998 63.122 62.795 64.922 58.485 62.366 61.688 60.567"/>
      <polygon class="cls-2" points="59.418 27.084 63.728 29.639 60.525 31.439 56.215 28.883 59.418 27.084"/>
      <polygon class="cls-2" points="3.203 45.043 7.512 47.599 4.31 49.398 0 46.842 3.203 45.043"/>
      <polygon class="cls-2" points="80.493 76.877 84.803 79.432 81.601 81.232 77.291 78.676 80.493 76.877"/>
      <polygon class="cls-1" points="66.446 42.408 70.756 44.964 67.553 46.763 63.244 44.207 66.446 42.408"/>
      <polygon class="cls-1" points="33.112 59.753 37.421 62.309 34.219 64.108 29.909 61.552 33.112 59.753"/>
      <polygon class="cls-2" points="140.19 37.22 144.5 39.775 141.297 41.575 136.988 39.019 140.19 37.22"/>
      <polygon class="cls-1" points="113.578 94.816 117.887 97.371 114.685 99.171 110.375 96.615 113.578 94.816"/>
      <polygon class="cls-1" points="46.783 131.882 51.093 134.438 47.89 136.237 43.581 133.681 46.783 131.882"/>
      <polygon class="cls-2" points="29.355 131.882 33.665 134.438 30.462 136.237 26.153 133.681 29.355 131.882"/>
      <polygon class="cls-1" points="41.913 137.53 46.223 140.085 43.02 141.885 38.711 139.329 41.913 137.53"/>
      <polygon class="cls-2" points="56.732 137.948 61.042 140.503 57.84 142.303 53.53 139.747 56.732 137.948"/>
      <polygon class="cls-1" points="66.852 144.185 71.162 146.741 67.959 148.54 63.649 145.984 66.852 144.185"/>
      <polygon class="cls-7" points="129.425 109.614 133.734 112.17 130.532 113.969 126.222 111.414 129.425 109.614"/>
      <polygon class="cls-1" points="16.886 123.61 21.195 126.166 17.993 127.965 13.683 125.41 16.886 123.61"/>
      <g>
        <g>
          <path class="cls-14" d="M15.4634,85.4443,5.619,79.7607A.5035.5035,0,0,0,5.11,79.72l.0007-.0064-.9549.5517s.4228.1541.671.2452v7.169a1.8968,1.8968,0,0,0,.792,1.5133l9.4094,5.4325v.8412l.9647-.5556-.0052-.0018a.7021.7021,0,0,0,.2676-.6314v-7.32A1.8969,1.8969,0,0,0,15.4634,85.4443Z"/>
          <path class="cls-7" d="M14.491,95.4369,4.6467,89.7532A1.8967,1.8967,0,0,1,3.8546,88.24V80.92c0-.5832.3546-.8513.7921-.5988l9.8443,5.6837a1.8967,1.8967,0,0,1,.7921,1.5134v7.32C15.2831,95.4213,14.9285,95.6894,14.491,95.4369Z"/>
        </g>
        <g>
          <path class="cls-6" d="M7.9572,87.2308c0,.4236-.2974.5952-.6642.3835a1.4683,1.4683,0,0,1-.6642-1.15c0-.4236.2974-.5952.6642-.3835A1.4684,1.4684,0,0,1,7.9572,87.2308Z"/>
          <path class="cls-6" d="M9.9694,88.3925c0,.4236-.2974.5953-.6642.3835a1.4683,1.4683,0,0,1-.6642-1.15c0-.4235.2974-.5952.6642-.3834A1.4683,1.4683,0,0,1,9.9694,88.3925Z"/>
          <path class="cls-6" d="M11.9816,89.5543c0,.4235-.2974.5952-.6642.3834a1.4681,1.4681,0,0,1-.6642-1.15c0-.4236.2974-.5953.6642-.3835A1.4683,1.4683,0,0,1,11.9816,89.5543Z"/>
        </g>
      </g>
      <g>
        <g>
          <path class="cls-2" d="M126.2192,14.4422l-9.8444-5.6836a.504.504,0,0,0-.5088-.0408l.0007-.0063-.9549.5517s.4227.1541.671.2452v7.1689a1.897,1.897,0,0,0,.792,1.5134l9.4094,5.4325v.8411l.9647-.5555-.0052-.0018a.7024.7024,0,0,0,.2676-.6314v-7.32A1.8971,1.8971,0,0,0,126.2192,14.4422Z"/>
          <path class="cls-1" d="M125.2468,24.4348l-9.8443-5.6836a1.8968,1.8968,0,0,1-.7921-1.5134v-7.32c0-.5833.3546-.8513.7921-.5987l9.8443,5.6836a1.8966,1.8966,0,0,1,.7921,1.5133v7.32C126.0389,24.4193,125.6843,24.6874,125.2468,24.4348Z"/>
        </g>
        <g>
          <path class="cls-6" d="M118.713,16.2288c0,.4235-.2974.5952-.6642.3834a1.468,1.468,0,0,1-.6643-1.15c0-.4236.2974-.5953.6643-.3835A1.4683,1.4683,0,0,1,118.713,16.2288Z"/>
          <path class="cls-6" d="M120.7252,17.3905c0,.4236-.2974.5952-.6642.3835a1.4681,1.4681,0,0,1-.6643-1.1505c0-.4236.2974-.5952.6643-.3835A1.4684,1.4684,0,0,1,120.7252,17.3905Z"/>
          <path class="cls-6" d="M122.7374,18.5522c0,.4236-.2974.5953-.6642.3835a1.4681,1.4681,0,0,1-.6643-1.15c0-.4236.2974-.5953.6643-.3835A1.4683,1.4683,0,0,1,122.7374,18.5522Z"/>
        </g>
      </g>
      <g>
        <g>
          <path class="cls-14" d="M117.2674,10.3861a8.3783,8.3783,0,0,0-3.79-6.5651,2.6945,2.6945,0,0,0-2.6249-.2917l-.002-.0032-.041.0236-.0233.0134-1.32.76.6253-.0393a3.4138,3.4138,0,0,0-.4045,1.7255,8.3782,8.3782,0,0,0,3.79,6.565,3.5416,3.5416,0,0,0,1.5535.5095c-.0856.1652-.29.5718-.29.5718l1.3732-.795c.0288-.0156.0571-.0321.0851-.0492l.0618-.0358-.0139.0026A2.72,2.72,0,0,0,117.2674,10.3861Z"/>
          <ellipse class="cls-7" cx="112.1048" cy="8.9883" rx="3.0948" ry="5.3604" transform="translate(10.5264 57.2594) rotate(-30.0016)"/>
        </g>
        <path class="cls-6" d="M111.9909,11.3825a2.2764,2.2764,0,0,1-.5148-.3969,1.6625,1.6625,0,0,1-.3251-.4851,2.37,2.37,0,0,1-.1638-.5454,3.6529,3.6529,0,0,1-.0493-.6307l.6981.4032c0,.1313.0044.2423.0125.3333a1.684,1.684,0,0,0,.05.2821.7068.7068,0,0,0,.1173.2509.6339.6339,0,0,0,.2026.1748.3083.3083,0,0,0,.1359.0469.2172.2172,0,0,0,.0982-.0158.1545.1545,0,0,0,.0656-.09.9465.9465,0,0,0,.0417-.1317,1.2433,1.2433,0,0,0,.02-.191c.0038-.0872.0067-.1591.0071-.2165s.0015-.1417.0015-.2533c0-.1211-.0019-.2236-.0062-.3069a2.5272,2.5272,0,0,0-.0287-.2649,1.0312,1.0312,0,0,0-.0628-.2355.7477.7477,0,0,0-.1121-.1835.6565.6565,0,0,0-.1757-.1474.2436.2436,0,0,0-.2485-.0278.3313.3313,0,0,0-.1437.2174l-.61-.3524.0326-2.6413,1.8833,1.0874V7.81l-1.2756-.7365-.0427,1.1047a.325.325,0,0,1,.2289-.0368.9585.9585,0,0,1,.3242.1163,1.5083,1.5083,0,0,1,.4228.3309,1.655,1.655,0,0,1,.2888.4611,2.6235,2.6235,0,0,1,.1613.5564,3.7083,3.7083,0,0,1,.0527.6417,5.07,5.07,0,0,1-.0263.5506,1.7948,1.7948,0,0,1-.0978.4243.5525.5525,0,0,1-.19.2734.4554.4554,0,0,1-.3142.06A1.2263,1.2263,0,0,1,111.9909,11.3825Z"/>
      </g>
      <path class="cls-7" d="M109.5143,70.9583l-1.799-2.9224a.49.49,0,1,1,.8351-.5143l1.3192,2.1428,4.1712-2.19a.49.49,0,1,1,.4559.8686Z"/>
      <path class="cls-7" d="M106.5675,59.1a6.2528,6.2528,0,0,1-2.8563-.97c-2.545-1.47-3.836-3.4419-3.836-5.862a2.8063,2.8063,0,0,1,4.559-2.6322,9.0806,9.0806,0,0,1,4.1033,7.1065,2.23,2.23,0,0,1-.95,2.1074A2.011,2.011,0,0,1,106.5675,59.1Zm-4.09-9.143a1.5427,1.5427,0,0,0-.7829.1982,2.2983,2.2983,0,0,0-.9069,2.1132c0,2.0705,1.1372,3.7771,3.38,5.0719,1.3187.7614,2.4272,1.029,2.9635.7192.3275-.1891.4937-.6321.4937-1.3168a8.0726,8.0726,0,0,0-3.6464-6.3164A3.079,3.079,0,0,0,102.4777,49.9567Z"/>
      <path class="cls-7" d="M110.1186,54.9616a.4552.4552,0,0,1-.3534-.1671c-2.252-2.7515-6.73-4.76-6.7746-4.78a.4563.4563,0,0,1,.37-.8342c.192.0848,4.7194,2.1151,7.11,5.036a.4564.4564,0,0,1-.3524.7456Z"/>
    </g>
  </g>
</svg>
