<svg xmlns="http://www.w3.org/2000/svg" viewBox="0 0 452.7846 117.0489">
  <defs>
    <style>
      .cls-1 {
        fill: #fff;
      }
    </style>
  </defs>
  <title>logo</title>
  <g id="Capa_2" data-name="Capa 2">
    <g id="Footer">
      <polygon class="cls-1" points="91.029 1.258 91.029 22.325 58.799 22.325 58.799 115.791 32.23 115.791 32.23 22.325 0 22.325 0 1.258 91.029 1.258"/>
      <path class="cls-1" d="M210.358,58.4851a61.5545,61.5545,0,0,1-4.2845,23.111,54.619,54.619,0,0,1-30.8144,30.9721,63.76,63.76,0,0,1-24.33,4.4807,64.0533,64.0533,0,0,1-24.369-4.4807A54.6687,54.6687,0,0,1,95.6281,81.5961a61.523,61.523,0,0,1-4.2844-23.111A61.5328,61.5328,0,0,1,95.6281,35.374a54.9685,54.9685,0,0,1,12.1056-18.5516A55.9725,55.9725,0,0,1,126.56,4.4807,64.05,64.05,0,0,1,150.9293,0a63.2786,63.2786,0,0,1,24.33,4.52,56.1449,56.1449,0,0,1,18.7481,12.381,55.2891,55.2891,0,0,1,12.0663,18.5516A61.3533,61.3533,0,0,1,210.358,58.4851Z"/>
      <path class="cls-1" d="M327.0117,58.4851A60.0627,60.0627,0,0,1,322.7277,81.4a53.6241,53.6241,0,0,1-12.0664,18.1586,54.7227,54.7227,0,0,1-18.7485,11.9486,66.3258,66.3258,0,0,1-24.3293,4.2843H223.0907V1.2577h44.4928a65.8215,65.8215,0,0,1,24.3293,4.3235A55.5352,55.5352,0,0,1,310.6613,17.53a53.2123,53.2123,0,0,1,12.0664,18.1194A59.8555,59.8555,0,0,1,327.0117,58.4851Z"/>
      <path class="cls-1" d="M448.501,35.4525a55.3083,55.3083,0,0,0-12.0667-18.5516A56.142,56.142,0,0,0,417.6857,4.52,63.2768,63.2768,0,0,0,393.3568,0a64.0466,64.0466,0,0,0-24.369,4.4807,55.9614,55.9614,0,0,0-18.827,12.3417,54.962,54.962,0,0,0-12.106,18.5516,61.5484,61.5484,0,0,0-4.2841,23.1111,61.5386,61.5386,0,0,0,4.2841,23.111,54.67,54.67,0,0,0,30.933,30.9721,68.3987,68.3987,0,0,0,48.6979,0A54.62,54.62,0,0,0,448.501,81.5961a61.5541,61.5541,0,0,0,4.2836-23.111A61.3529,61.3529,0,0,0,448.501,35.4525Zm-73.97,55.0987L351.163,59.6486l13.64-10.3145,13.0045,17.1975,49.629-37.9,10.3792,13.5911Z"/>
    </g>
  </g>
</svg>
