<svg xmlns="http://www.w3.org/2000/svg" viewBox="0 0 119.0143 117.0489">
  <defs>
    <style>
      .cls-1 {
        fill: #fff;
      }
    </style>
  </defs>
  <title>o</title>
  <g id="Capa_2" data-name="Capa 2">
    <g id="Footer">
      <path class="cls-1" d="M119.0143,58.4851a61.5564,61.5564,0,0,1-4.2844,23.111,54.62,54.62,0,0,1-30.8145,30.9721,63.7593,63.7593,0,0,1-24.33,4.4807,64.0541,64.0541,0,0,1-24.369-4.4807A54.6687,54.6687,0,0,1,4.2844,81.5961,61.523,61.523,0,0,1,0,58.4851,61.5328,61.5328,0,0,1,4.2844,35.374,54.97,54.97,0,0,1,16.39,16.8224,55.9735,55.9735,0,0,1,35.2166,4.4807,64.05,64.05,0,0,1,59.5856,0a63.2782,63.2782,0,0,1,24.33,4.52,56.1439,56.1439,0,0,1,18.7481,12.381A55.2878,55.2878,0,0,1,114.73,35.4525,61.3552,61.3552,0,0,1,119.0143,58.4851Z"/>
    </g>
  </g>
</svg>
