<svg xmlns="http://www.w3.org/2000/svg" viewBox="0 0 119.0139 117.0489">
  <defs>
    <style>
      .cls-1 {
        fill: #fff;
      }
    </style>
  </defs>
  <title>Ochecked</title>
  <g id="Capa_2" data-name="Capa 2">
    <g id="Footer">
      <path class="cls-1" d="M114.73,35.4525a55.3086,55.3086,0,0,0-12.0668-18.5516A56.1416,56.1416,0,0,0,83.915,4.52,63.2772,63.2772,0,0,0,59.5861,0a64.0462,64.0462,0,0,0-24.369,4.4807A55.9628,55.9628,0,0,0,16.39,16.8224,54.965,54.965,0,0,0,4.284,35.374,61.55,61.55,0,0,0,0,58.4851a61.5405,61.5405,0,0,0,4.284,23.111,54.67,54.67,0,0,0,30.9331,30.9721,64.05,64.05,0,0,0,24.369,4.4807,63.7582,63.7582,0,0,0,24.3289-4.4807A54.621,54.621,0,0,0,114.73,81.5961a61.5561,61.5561,0,0,0,4.2836-23.111A61.3548,61.3548,0,0,0,114.73,35.4525ZM40.76,90.5512,17.3923,59.6486l13.64-10.3145L44.0367,66.5316l49.6289-37.9,10.3792,13.5911Z"/>
    </g>
  </g>
</svg>
